<svg xmlns="http://www.w3.org/2000/svg" width="27.5" height="22" viewBox="0 0 27.5 22">
  <g id="Group_9827" data-name="Group 9827" transform="translate(-305 -610)">
    <g id="file-text" transform="translate(306 611)">
      <path id="Path_1494" data-name="Path 1494" d="M14,2H6A2,2,0,0,0,4,4V20a2,2,0,0,0,2,2H18a2,2,0,0,0,2-2V8Z" transform="translate(-4 -2)" fill="none" stroke="#ef6102" stroke-linecap="round" stroke-linejoin="round" stroke-width="2"/>
      <path id="Path_1495" data-name="Path 1495" d="M14,2V8h6" transform="translate(-4 -2)" fill="none" stroke="#ef6102" stroke-linecap="round" stroke-linejoin="round" stroke-width="2"/>
      <line id="Line_109" data-name="Line 109" x1="8" transform="translate(4 10.446)" fill="none" stroke="#ef6102" stroke-linecap="round" stroke-linejoin="round" stroke-width="2"/>
      <line id="Line_110" data-name="Line 110" x1="8" transform="translate(4 14.446)" fill="none" stroke="#ef6102" stroke-linecap="round" stroke-linejoin="round" stroke-width="2"/>
      <path id="Path_1496" data-name="Path 1496" d="M10,9H8" transform="translate(-4 -2)" fill="none" stroke="#ef6102" stroke-linecap="round" stroke-linejoin="round" stroke-width="2"/>
    </g>
    <g id="Group_9826" data-name="Group 9826" transform="translate(167 388)">
      <line id="Line_302" data-name="Line 302" y2="6" transform="translate(161.5 230.5)" fill="none" stroke="#ef6102" stroke-linecap="round" stroke-width="2"/>
      <line id="Line_303" data-name="Line 303" x2="6" transform="translate(158.5 233.5)" fill="none" stroke="#ef6102" stroke-linecap="round" stroke-width="2"/>
    </g>
  </g>
</svg>
