<svg xmlns="http://www.w3.org/2000/svg" width="38" height="37" viewBox="0 0 38 37">
  <g id="Group_9839" data-name="Group 9839" transform="translate(-158 527)">
    <g id="Group_2981" data-name="Group 2981" transform="translate(158.223 -526.705)">
      <g id="Group_2954" data-name="Group 2954" transform="translate(0 0)">
        <ellipse id="Ellipse_36" data-name="Ellipse 36" cx="19" cy="18.5" rx="19" ry="18.5" transform="translate(-0.223 -0.295)" fill="rgba(239,97,2,0.2)"/>
      </g>
    </g>
    <g id="group_1_" data-name="group (1)" transform="translate(167 -517)">
      <g id="Group_2957" data-name="Group 2957" transform="translate(15.997 9.413)">
        <g id="Group_2956" data-name="Group 2956">
          <path id="Path_2178" data-name="Path 2178" d="M400.084,273.32h-1.59a4.135,4.135,0,0,1,.251,1.421v6.007a1.771,1.771,0,0,1-.1.593h2.628a1.782,1.782,0,0,0,1.78-1.78v-3.275A2.97,2.97,0,0,0,400.084,273.32Z" transform="translate(-398.494 -273.32)"/>
        </g>
      </g>
      <g id="Group_2959" data-name="Group 2959" transform="translate(0 9.413)">
        <g id="Group_2958" data-name="Group 2958">
          <path id="Path_2179" data-name="Path 2179" d="M4.306,274.742a4.135,4.135,0,0,1,.251-1.421H2.967A2.97,2.97,0,0,0,0,276.288v3.275a1.782,1.782,0,0,0,1.78,1.78H4.408a1.772,1.772,0,0,1-.1-.593Z" transform="translate(0 -273.321)"/>
        </g>
      </g>
      <g id="Group_2961" data-name="Group 2961" transform="translate(5.493 7.867)">
        <g id="Group_2960" data-name="Group 2960">
          <path id="Path_2180" data-name="Path 2180" d="M143.43,234.815H139.8a2.97,2.97,0,0,0-2.967,2.967v6.008a.593.593,0,0,0,.593.593H145.8a.593.593,0,0,0,.593-.593v-6.008A2.97,2.97,0,0,0,143.43,234.815Z" transform="translate(-136.829 -234.815)"/>
        </g>
      </g>
      <g id="Group_2963" data-name="Group 2963" transform="translate(6.709 0)">
        <g id="Group_2962" data-name="Group 2962">
          <path id="Path_2181" data-name="Path 2181" d="M170.682,38.84a3.568,3.568,0,1,0,3.568,3.568A3.572,3.572,0,0,0,170.682,38.84Z" transform="translate(-167.114 -38.84)"/>
        </g>
      </g>
      <g id="Group_2965" data-name="Group 2965" transform="translate(1.343 3.326)">
        <g id="Group_2964" data-name="Group 2964">
          <path id="Path_2182" data-name="Path 2182" d="M36.112,121.689a2.667,2.667,0,1,0,2.669,2.669A2.672,2.672,0,0,0,36.112,121.689Z" transform="translate(-33.443 -121.689)"/>
        </g>
      </g>
      <g id="Group_2967" data-name="Group 2967" transform="translate(13.874 3.326)">
        <g id="Group_2966" data-name="Group 2966">
          <path id="Path_2183" data-name="Path 2183" d="M348.276,121.689a2.669,2.669,0,1,0,2.669,2.669A2.672,2.672,0,0,0,348.276,121.689Z" transform="translate(-345.607 -121.689)"/>
        </g>
      </g>
    </g>
  </g>
</svg>
