<svg xmlns="http://www.w3.org/2000/svg" width="38" height="37" viewBox="0 0 38 37">
  <g id="Group_9840" data-name="Group 9840" transform="translate(-313 527)">
    <g id="Group_2980" data-name="Group 2980" transform="translate(313.223 -526.705)">
      <g id="Group_2954" data-name="Group 2954" transform="translate(0 0)">
        <ellipse id="Ellipse_36" data-name="Ellipse 36" cx="19" cy="18.5" rx="19" ry="18.5" transform="translate(-0.223 -0.295)" fill="rgba(239,97,2,0.2)"/>
      </g>
    </g>
    <g id="partnership" transform="translate(320.25 -517.563)">
      <g id="Group_2969" data-name="Group 2969" transform="translate(0 0)">
        <g id="Group_2968" data-name="Group 2968">
          <path id="Path_2184" data-name="Path 2184" d="M339.058,61.677a2.991,2.991,0,1,0-2.985-2.989A2.987,2.987,0,0,0,339.058,61.677Z" transform="translate(-320.302 -55.696)"/>
          <path id="Path_2185" data-name="Path 2185" d="M21.156,193.533H16.362a1.6,1.6,0,0,0-1.5,1.289l-2.846,5.828c-.04,0-.075-.023-.116-.023h-1.1c-.04,0-.076.021-.114.023l-2.846-5.827a1.6,1.6,0,0,0-1.494-1.29h-4.8A1.664,1.664,0,0,0,0,195.284v9.267H7.908v-5.261l1.727,3.193a1.262,1.262,0,0,0,1.173.957h1.1a1.266,1.266,0,0,0,1.175-.957l1.726-3.193v5.261h7.908v-9.267A1.667,1.667,0,0,0,21.156,193.533Z" transform="translate(0 -187.065)"/>
          <path id="Path_2186" data-name="Path 2186" d="M23.507,61.677a2.991,2.991,0,1,0-2.993-2.989A2.987,2.987,0,0,0,23.507,61.677Z" transform="translate(-19.551 -55.696)"/>
        </g>
      </g>
    </g>
  </g>
</svg>
