<svg xmlns="http://www.w3.org/2000/svg" width="38" height="37" viewBox="0 0 38 37">
  <g id="Group_9844" data-name="Group 9844" transform="translate(-842 527)">
    <g id="Group_2977" data-name="Group 2977" transform="translate(842.223 -526.705)">
      <g id="Group_2954" data-name="Group 2954" transform="translate(0 0)">
        <ellipse id="Ellipse_36" data-name="Ellipse 36" cx="19" cy="18.5" rx="19" ry="18.5" transform="translate(-0.223 -0.295)" fill="rgba(239,97,2,0.2)"/>
      </g>
    </g>
    <g id="clipboard" transform="translate(854.547 -517.563)">
      <g id="Group_2971" data-name="Group 2971" transform="translate(0 0)">
        <g id="Group_2970" data-name="Group 2970">
          <path id="Path_2187" data-name="Path 2187" d="M141.615,1.37h-1.322a.371.371,0,0,1-.348-.278A1.345,1.345,0,0,0,138.577,0a1.368,1.368,0,0,0-1.368,1.113.348.348,0,0,1-.348.255h-1.276V3.689h6.03Z" transform="translate(-131.874 -0.001)"/>
          <path id="Path_2188" data-name="Path 2188" d="M65.439,76.374V63.086a.951.951,0,0,0-.948-.953l-.072,0H62.424v1.183c0,.186-.116.441-.3.441H55.281c-.186,0-.278-.255-.278-.441V62.135H53.009a.951.951,0,0,0-1.018.879q0,.036,0,.072V76.375a1.044,1.044,0,0,0,1.02,1.067H64.419a1.044,1.044,0,0,0,1.02-1.066Zm-8.6-3.061-1.809,1.693a.325.325,0,0,1-.232.116.371.371,0,0,1-.255-.116l-.951-.974a.353.353,0,0,1,.51-.487l.7.742L56.371,72.8a.348.348,0,0,1,.464.51Zm0-3.711h0L55.026,71.3a.324.324,0,0,1-.232.116.371.371,0,0,1-.255-.116l-.951-.974a.353.353,0,0,1,.51-.487l.7.742,1.577-1.484a.348.348,0,0,1,.464.51Zm0-3.711-1.809,1.693a.325.325,0,0,1-.232.116.371.371,0,0,1-.255-.116l-.951-.974a.353.353,0,0,1,.51-.487l.7.742,1.577-1.484a.348.348,0,0,1,.464.51Zm6.749,8.766H58.25a.348.348,0,0,1,0-.7h5.334a.348.348,0,0,1,0,.7Zm0-3.711H58.25a.348.348,0,0,1,0-.7h5.334a.348.348,0,0,1,0,.7Zm0-3.711H58.25a.348.348,0,0,1,0-.7h5.334a.348.348,0,0,1,0,.7Z" transform="translate(-51.988 -59.375)"/>
        </g>
      </g>
    </g>
  </g>
</svg>
