<svg xmlns="http://www.w3.org/2000/svg" width="18" height="23" viewBox="0 0 18 23">
  <g id="Group_9837" data-name="Group 9837" transform="translate(-46 -689.89)">
    <g id="tv" transform="translate(47 692)">
      <rect id="Rectangle_757" data-name="Rectangle 757" width="16" height="21" rx="2" transform="translate(0 -1.11)" fill="none" stroke="#ef6102" stroke-linecap="round" stroke-linejoin="round" stroke-width="2"/>
    </g>
    <path id="Path_2812" data-name="Path 2812" d="M67.125,177.618a.539.539,0,0,0,.762,0l.985-.985.985.985a.539.539,0,1,0,.762-.762l-.985-.985.985-.985a.539.539,0,0,0-.762-.762l-.985.985-.985-.985a.538.538,0,0,0-.762.762l.985.985-.985.985A.539.539,0,0,0,67.125,177.618Zm0,0" transform="translate(-16.564 521.277)" fill="#ef6102"/>
    <path id="Path_2813" data-name="Path 2813" d="M213.389,182.158l-1.773,1.773-.7-.7a.538.538,0,0,0-.761.761l1.077,1.077a.538.538,0,0,0,.761,0l2.154-2.154a.538.538,0,0,0-.761-.761Zm0,0" transform="translate(-154.462 513.533)" fill="#ef6102"/>
    <path id="Path_2814" data-name="Path 2814" d="M63.769,302H60.538a.538.538,0,1,0,0,1.077h3.231a.538.538,0,1,0,0-1.077Zm0,0" transform="translate(-9.846 401.841)" fill="#ef6102"/>
    <path id="Path_2820" data-name="Path 2820" d="M63.769,302H60.538a.538.538,0,1,0,0,1.077h3.231a.538.538,0,1,0,0-1.077Zm0,0" transform="translate(-9.846 399.841)" fill="#ef6102"/>
    <path id="Path_2815" data-name="Path 2815" d="M63.769,362H60.538a.538.538,0,0,0,0,1.077h3.231a.538.538,0,0,0,0-1.077Zm0,0" transform="translate(-9.846 343.995)" fill="#ef6102"/>
    <path id="Path_2816" data-name="Path 2816" d="M63.769,422H60.538a.538.538,0,0,0,0,1.077h3.231a.538.538,0,0,0,0-1.077Zm0,0" transform="translate(-9.846 286.149)" fill="#ef6102"/>
    <path id="Path_2817" data-name="Path 2817" d="M213.769,362h-3.231a.538.538,0,0,0,0,1.077h3.231a.538.538,0,1,0,0-1.077Zm0,0" transform="translate(-154.462 343.995)" fill="#ef6102"/>
    <path id="Path_2818" data-name="Path 2818" d="M213.769,302h-3.231a.538.538,0,0,0,0,1.077h3.231a.538.538,0,1,0,0-1.077Zm0,0" transform="translate(-154.462 401.841)" fill="#ef6102"/>
    <path id="Path_2819" data-name="Path 2819" d="M213.769,302h-3.231a.538.538,0,0,0,0,1.077h3.231a.538.538,0,1,0,0-1.077Zm0,0" transform="translate(-154.462 399.841)" fill="#ef6102"/>
  </g>
</svg>
