<svg xmlns="http://www.w3.org/2000/svg" width="36.141" height="21.681" viewBox="0 0 36.141 21.681">
  <path id="Icon_awesome-motorcycle" data-name="Icon awesome-motorcycle" d="M28.957,11.727a7.144,7.144,0,0,0-2.394.39l-1.857-3.1h4.652a1.352,1.352,0,0,0,1.355-1.355V5.855A1.352,1.352,0,0,0,29.358,4.5H26.8a1.355,1.355,0,0,0-1,.446L23.678,7.3,22.391,5.155A1.364,1.364,0,0,0,21.228,4.5H16.711a.906.906,0,0,0-.9.9v.9a.906.906,0,0,0,.9.9H20.46l1.084,1.807H12.867c-1-1.3-2.535-2.258-5.64-2.258H4.093A1.375,1.375,0,0,0,2.71,8.142,1.353,1.353,0,0,0,4.065,9.468H7.226a2.99,2.99,0,0,1,2.7,1.4l-.638,1.157a7.227,7.227,0,1,0,4.94,8.734h4.754a1.356,1.356,0,0,0,1.355-1.417,8.552,8.552,0,0,1,3.173-7.057l.706,1.174a7.228,7.228,0,1,0,4.743-1.733ZM7.226,23.47a4.517,4.517,0,1,1,0-9.033,4.2,4.2,0,0,1,.706.056L5.589,18.75a1.357,1.357,0,0,0,1.186,2.01h4.59A4.529,4.529,0,0,1,7.226,23.47ZM33.418,19.2a4.517,4.517,0,0,1-9.028-.248,4.48,4.48,0,0,1,1.248-3.111l2.789,4.652a.907.907,0,0,0,1.242.311l.773-.463a.907.907,0,0,0,.311-1.242l-2.744-4.568a4.324,4.324,0,0,1,.9-.09A4.516,4.516,0,0,1,33.418,19.2Z" transform="translate(0.002 -4.5)" fill="#fff"/>
</svg>
