<svg xmlns="http://www.w3.org/2000/svg" width="20.527" height="22.105" viewBox="0 0 20.527 22.105">
  <g id="Icon_ionic-ios-gift" data-name="Icon ionic-ios-gift" transform="translate(-3.375 -2.25)">
    <path id="Path_5313" data-name="Path 5313" d="M22.323,7.382h-4.16a2.9,2.9,0,0,0,1-2.171A3.043,3.043,0,0,0,16.051,2.25,2.753,2.753,0,0,0,13.638,3.6,2.753,2.753,0,0,0,11.225,2.25,3.043,3.043,0,0,0,8.112,5.211a2.882,2.882,0,0,0,1,2.171H4.954A1.577,1.577,0,0,0,3.375,8.961v.987a.2.2,0,0,0,.2.2H23.7a.2.2,0,0,0,.2-.2V8.961A1.577,1.577,0,0,0,22.323,7.382Zm-6.271-3.75a1.622,1.622,0,0,1,1.663,1.579A1.622,1.622,0,0,1,16.051,6.79H14.388C14.388,4.421,15.133,3.632,16.051,3.632Zm-4.826,0c.918,0,1.663.789,1.663,3.158H11.225A1.622,1.622,0,0,1,9.563,5.211,1.622,1.622,0,0,1,11.225,3.632Z" fill="#fff"/>
    <path id="Path_5314" data-name="Path 5314" d="M4.5,15.723V26.677a1.584,1.584,0,0,0,1.579,1.579h7.2V15.328H4.895A.4.4,0,0,0,4.5,15.723Z" transform="translate(-0.336 -3.9)" fill="#fff"/>
    <path id="Path_5315" data-name="Path 5315" d="M27.373,15.328H18.984V28.256h7.2a1.584,1.584,0,0,0,1.579-1.579V15.723A.4.4,0,0,0,27.373,15.328Z" transform="translate(-4.655 -3.9)" fill="#fff"/>
  </g>
</svg>
