<svg xmlns="http://www.w3.org/2000/svg" xmlns:xlink="http://www.w3.org/1999/xlink" width="285.209" height="202.042" viewBox="0 0 285.209 202.042">
  <defs>
    <clipPath id="clip-path">
      <path id="Path_5587" data-name="Path 5587" d="M434.729,67.62c16.086-21.78,52.126-28.636,80.591-3.219s52.158,8.371,78.3-6.44c37.182-21.061,88.058-8.692,88.582,30.72s-27.788,62.711,0,87.239,17.02,63.915-30.027,70.962-59.453-30.269-122.722-12.922-96.836,26.487-112.03-4.74c-20.973-43.1,31.459-71.283,18.876-105.081S426.34,78.979,434.729,67.62Z" transform="translate(-412.415 -47.801)" fill="none"/>
    </clipPath>
    <linearGradient id="linear-gradient" x1="-0.405" y1="0.5" x2="1.253" y2="0.5" gradientUnits="objectBoundingBox">
      <stop offset="0" stop-color="#ff5b96"/>
      <stop offset="1" stop-color="#da3362"/>
    </linearGradient>
    <clipPath id="clip-path-4">
      <path id="Path_5658" data-name="Path 5658" d="M434.987,67.62c16.086-21.78,52.126-28.636,80.591-3.219s52.158,8.371,78.3-6.44c37.182-21.061,88.058-8.692,88.583,30.72s-27.79,62.711,0,87.239,17.019,63.915-30.028,70.962-59.453-30.269-122.722-12.922-96.836,26.487-112.03-4.74c-20.973-43.1,31.459-71.283,18.876-105.081S426.6,78.979,434.987,67.62Z" transform="translate(-412.673 -47.801)" fill="none"/>
    </clipPath>
    <clipPath id="clip-path-5">
      <path id="Path_5665" data-name="Path 5665" d="M443.438,231.478s1.846-4.59,10.321-6.324c0,0-9.255-.316-14.4,3.968,0,0,3.5-19.52,3.273-25.893l-7.676,24.489s-3.385-12.484-9.381-18.621c0,0,4.891,10.739,2.84,16.957a60.727,60.727,0,0,0,7.172,3.632A76.147,76.147,0,0,0,443.438,231.478Z" transform="translate(-425.571 -203.229)" fill="#a8d3f1"/>
    </clipPath>
    <linearGradient id="linear-gradient-2" y1="0.5" x2="1" y2="0.5" gradientUnits="objectBoundingBox">
      <stop offset="0" stop-color="#473071"/>
      <stop offset="1" stop-color="#382a5f"/>
    </linearGradient>
    <linearGradient id="linear-gradient-3" y1="0.5" x2="1" y2="0.5" gradientUnits="objectBoundingBox">
      <stop offset="0" stop-color="#fdd7db"/>
      <stop offset="1" stop-color="#fbadaf"/>
    </linearGradient>
    <linearGradient id="linear-gradient-4" x1="1.195" y1="0.394" x2="0.369" y2="0.949" xlink:href="#linear-gradient-3"/>
    <linearGradient id="linear-gradient-5" x1="-9.877" y1="0.447" x2="-9.013" y2="1.351" gradientUnits="objectBoundingBox">
      <stop offset="0" stop-color="#da3362"/>
      <stop offset="1" stop-color="#ff5b96"/>
    </linearGradient>
    <linearGradient id="linear-gradient-6" y1="0.5" x2="1" y2="0.5" gradientUnits="objectBoundingBox">
      <stop offset="0" stop-color="#da3362"/>
      <stop offset="1" stop-color="#da3362"/>
    </linearGradient>
    <linearGradient id="linear-gradient-7" x1="0.186" y1="0.444" x2="1.01" y2="0.804" xlink:href="#linear-gradient"/>
    <linearGradient id="linear-gradient-8" y1="0.5" x2="1" y2="0.5" gradientUnits="objectBoundingBox">
      <stop offset="0" stop-color="#cd8b3a"/>
      <stop offset="1" stop-color="#e09e4f"/>
    </linearGradient>
    <linearGradient id="linear-gradient-9" y1="0.5" x2="1" y2="0.5" gradientUnits="objectBoundingBox">
      <stop offset="0" stop-color="#e2995c"/>
      <stop offset="1" stop-color="#f4b073"/>
    </linearGradient>
    <linearGradient id="linear-gradient-11" x1="0.385" y1="0.391" x2="1.782" y2="1.492" xlink:href="#linear-gradient"/>
  </defs>
  <g id="Group_4748" data-name="Group 4748" transform="translate(-412.415 -47.801)">
    <path id="BG" d="M434.987,67.62c16.086-21.78,52.126-28.636,80.591-3.219s52.158,8.371,78.3-6.44c37.182-21.061,88.058-8.692,88.583,30.72s-27.79,62.711,0,87.239,17.019,63.915-30.028,70.962-59.453-30.269-122.722-12.922-96.836,26.487-112.03-4.74c-20.973-43.1,31.459-71.283,18.876-105.081S426.6,78.979,434.987,67.62Z" transform="translate(0.03 0)" fill="#d2eaf9"/>
    <g id="Group_4560" data-name="Group 4560" transform="translate(423.364 58.168)">
      <path id="Path_5428" data-name="Path 5428" d="M422.472,114.142h122.42a10.68,10.68,0,0,0-5.213-6.278c-5.42-2.949-12.016-.963-12.32-.87a2.933,2.933,0,0,0-4-1.147v-.008a6.112,6.112,0,0,0-10.388-4.371,2.978,2.978,0,0,0-2.706-1.745,3.056,3.056,0,0,0-.5.05,8.574,8.574,0,0,0-10.326-10.994,2.981,2.981,0,0,0-2.759-1.857,2.946,2.946,0,0,0-.79.119c.033-.4.061-.794.061-1.2a14.21,14.21,0,0,0-28.419,0c0,.342.028.677.051,1.012a8.5,8.5,0,0,0-6.707.366,12.016,12.016,0,0,0-21.363,9.919,6.4,6.4,0,0,0-5.576,7.491c-.035,0-.067-.01-.1-.01a2.983,2.983,0,0,0-2.982,2.982c0,.012,0,.023,0,.036a12.382,12.382,0,0,0-3,.115A5.984,5.984,0,0,0,422.472,114.142Zm72.072-22.164c.03.031.062.059.094.089-.052.071-.11.139-.159.213l-.062-.037C494.461,92.157,494.5,92.067,494.544,91.978Z" transform="translate(-422.209 -55.43)" fill="#fff" fill-rule="evenodd"/>
      <circle id="Ellipse_461" data-name="Ellipse 461" cx="3.635" cy="3.635" r="3.635" transform="translate(117.835)" fill="#a8d3f1"/>
      <circle id="Ellipse_462" data-name="Ellipse 462" cx="3.635" cy="3.635" r="3.635" transform="translate(263.198 83.892)" fill="#a8d3f1"/>
      <circle id="Ellipse_463" data-name="Ellipse 463" cx="3.635" cy="3.635" r="3.635" transform="translate(30.012 155.653)" fill="#a8d3f1"/>
      <circle id="Ellipse_464" data-name="Ellipse 464" cx="3.635" cy="3.635" r="3.635" transform="translate(36.042 3.147)" fill="#fff"/>
      <path id="Path_5429" data-name="Path 5429" d="M495.777,73.632a2.171,2.171,0,1,0,2.171-2.171A2.17,2.17,0,0,0,495.777,73.632Z" transform="translate(-413.783 -55.449)" fill="#a8d3f1" fill-rule="evenodd"/>
      <path id="Path_5430" data-name="Path 5430" d="M455.875,124.684a2.171,2.171,0,1,0,2.171-2.171A2.171,2.171,0,0,0,455.875,124.684Z" transform="translate(-418.369 -49.582)" fill="#a8d3f1" fill-rule="evenodd"/>
      <path id="Path_5431" data-name="Path 5431" d="M495.777,186.06a2.171,2.171,0,1,0,2.171-2.171A2.17,2.17,0,0,0,495.777,186.06Z" transform="translate(-413.783 -42.529)" fill="#fff" fill-rule="evenodd"/>
      <path id="Path_5432" data-name="Path 5432" d="M422.235,192.932a2.171,2.171,0,1,0,2.171-2.171A2.171,2.171,0,0,0,422.235,192.932Z" transform="translate(-422.235 -41.739)" fill="#fff" fill-rule="evenodd"/>
    </g>
    <g id="Group_4651" data-name="Group 4651" transform="translate(412.415 47.801)">
      <g id="Group_4650" data-name="Group 4650" clip-path="url(#clip-path)">
        <g id="Group_4649" data-name="Group 4649" transform="translate(109.734 -46.566)">
          <g id="Group_4568" data-name="Group 4568" transform="translate(13.012 25.785)">
            <g id="Group_4561" data-name="Group 4561" transform="translate(156.145)">
              <path id="Path_5433" data-name="Path 5433" d="M662.735,84.361l13.012-1.61V29.361l-13.012,1.61Z" transform="translate(-662.538 -29.139)" fill="#a8d3f1"/>
              <path id="Path_5434" data-name="Path 5434" d="M662.558,30.82l13.406-1.658V82.948l-13.406,1.659Zm13.012-1.213-12.619,1.561V84.162L675.57,82.6Z" transform="translate(-662.558 -29.162)" fill="#5f8caa"/>
            </g>
            <g id="Group_4562" data-name="Group 4562" transform="translate(130.122 3.22)">
              <path id="Path_5435" data-name="Path 5435" d="M639.393,87.249l13.012-1.61V32.249l-13.012,1.61Z" transform="translate(-639.197 -32.027)" fill="#a8d3f1"/>
              <path id="Path_5436" data-name="Path 5436" d="M639.217,33.708l13.4-1.658V85.836l-13.4,1.658Zm13.012-1.213-12.62,1.561V87.049l12.62-1.561Z" transform="translate(-639.217 -32.05)" fill="#5f8caa"/>
            </g>
            <g id="Group_4563" data-name="Group 4563" transform="translate(104.097 6.44)">
              <path id="Path_5437" data-name="Path 5437" d="M616.051,90.137l13.012-1.61V35.137l-13.012,1.61Z" transform="translate(-615.855 -34.915)" fill="#a8d3f1"/>
              <path id="Path_5438" data-name="Path 5438" d="M615.875,36.595l13.4-1.657V88.724l-13.4,1.658Zm13.012-1.213-12.619,1.561V89.937l12.619-1.561Z" transform="translate(-615.875 -34.938)" fill="#5f8caa"/>
            </g>
            <g id="Group_4564" data-name="Group 4564" transform="translate(78.073 9.659)">
              <path id="Path_5439" data-name="Path 5439" d="M592.709,93.024l13.012-1.61V38.024l-13.012,1.61Z" transform="translate(-592.513 -37.802)" fill="#a8d3f1"/>
              <path id="Path_5440" data-name="Path 5440" d="M592.533,39.483l13.406-1.658V91.611L592.533,93.27Zm13.012-1.213-12.619,1.561V92.825l12.619-1.562Z" transform="translate(-592.533 -37.825)" fill="#5f8caa"/>
            </g>
            <g id="Group_4565" data-name="Group 4565" transform="translate(52.048 12.878)">
              <path id="Path_5441" data-name="Path 5441" d="M569.368,95.912,582.38,94.3V40.912l-13.012,1.61Z" transform="translate(-569.171 -40.69)" fill="#a8d3f1"/>
              <path id="Path_5442" data-name="Path 5442" d="M569.191,42.371,582.6,40.713V94.5l-13.406,1.658ZM582.2,41.157l-12.619,1.562V95.712L582.2,94.151Z" transform="translate(-569.191 -40.713)" fill="#5f8caa"/>
            </g>
            <g id="Group_4566" data-name="Group 4566" transform="translate(26.025 16.097)">
              <path id="Path_5443" data-name="Path 5443" d="M546.026,98.8l13.012-1.61V43.8l-13.012,1.61Z" transform="translate(-545.83 -43.577)" fill="#a8d3f1"/>
              <path id="Path_5444" data-name="Path 5444" d="M545.85,45.259l13.4-1.659V97.386l-13.4,1.659Zm13.012-1.214-12.62,1.562V98.6l12.62-1.562Z" transform="translate(-545.85 -43.6)" fill="#5f8caa"/>
            </g>
            <g id="Group_4567" data-name="Group 4567" transform="translate(0 19.317)">
              <path id="Path_5445" data-name="Path 5445" d="M522.684,101.687l13.012-1.61V46.687L522.684,48.3Z" transform="translate(-522.488 -46.465)" fill="#a8d3f1"/>
              <path id="Path_5446" data-name="Path 5446" d="M522.508,48.146l13.4-1.658v53.786l-13.4,1.658Zm13.012-1.213L522.9,48.494v52.995l12.619-1.562Z" transform="translate(-522.508 -46.488)" fill="#5f8caa"/>
            </g>
          </g>
          <g id="Group_4576" data-name="Group 4576" transform="translate(0 53.284)">
            <g id="Group_4569" data-name="Group 4569" transform="translate(156.146)">
              <path id="Path_5447" data-name="Path 5447" d="M651.064,109.027l13.012-1.61V54.027l-13.012,1.61Z" transform="translate(-650.868 -53.804)" fill="#a8d3f1"/>
              <path id="Path_5448" data-name="Path 5448" d="M650.888,55.486l13.4-1.659v53.787l-13.4,1.658ZM663.9,54.272,651.28,55.834v52.993l12.619-1.561Z" transform="translate(-650.888 -53.827)" fill="#5f8caa"/>
            </g>
            <g id="Group_4570" data-name="Group 4570" transform="translate(130.122 3.22)">
              <path id="Path_5449" data-name="Path 5449" d="M627.722,111.914l13.012-1.61V56.914l-13.012,1.61Z" transform="translate(-627.526 -56.692)" fill="#a8d3f1"/>
              <path id="Path_5450" data-name="Path 5450" d="M627.546,58.373l13.4-1.658V110.5l-13.4,1.658Zm13.012-1.213-12.62,1.562v52.993l12.62-1.562Z" transform="translate(-627.546 -56.715)" fill="#5f8caa"/>
            </g>
            <g id="Group_4571" data-name="Group 4571" transform="translate(104.097 6.439)">
              <path id="Path_5451" data-name="Path 5451" d="M604.38,114.8l13.012-1.61V59.8l-13.012,1.61Z" transform="translate(-604.184 -59.579)" fill="#a8d3f1"/>
              <path id="Path_5452" data-name="Path 5452" d="M604.2,61.261,617.61,59.6v53.787L604.2,115.047Zm13.012-1.214L604.6,61.609V114.6l12.619-1.561Z" transform="translate(-604.204 -59.602)" fill="#5f8caa"/>
            </g>
            <g id="Group_4572" data-name="Group 4572" transform="translate(78.073 9.659)">
              <path id="Path_5453" data-name="Path 5453" d="M581.039,117.69l13.012-1.61V62.69L581.039,64.3Z" transform="translate(-580.842 -62.467)" fill="#a8d3f1"/>
              <path id="Path_5454" data-name="Path 5454" d="M580.862,64.149l13.406-1.659v53.787l-13.406,1.658Zm13.012-1.214L581.256,64.5V117.49l12.619-1.561Z" transform="translate(-580.862 -62.49)" fill="#5f8caa"/>
            </g>
            <g id="Group_4573" data-name="Group 4573" transform="translate(52.049 12.878)">
              <path id="Path_5455" data-name="Path 5455" d="M557.7,120.577l13.012-1.61V65.577L557.7,67.187Z" transform="translate(-557.501 -65.355)" fill="#a8d3f1"/>
              <path id="Path_5456" data-name="Path 5456" d="M557.521,67.036l13.4-1.658v53.786l-13.4,1.658Zm13.011-1.213-12.619,1.561v52.995l12.619-1.562Z" transform="translate(-557.521 -65.378)" fill="#5f8caa"/>
            </g>
            <g id="Group_4574" data-name="Group 4574" transform="translate(26.025 16.098)">
              <path id="Path_5457" data-name="Path 5457" d="M534.355,123.465l13.012-1.61V68.465l-13.012,1.61Z" transform="translate(-534.159 -68.243)" fill="#a8d3f1"/>
              <path id="Path_5458" data-name="Path 5458" d="M534.179,69.924l13.4-1.658v53.786l-13.4,1.658Zm13.012-1.214-12.62,1.562v52.993l12.62-1.561Z" transform="translate(-534.179 -68.266)" fill="#5f8caa"/>
            </g>
            <g id="Group_4575" data-name="Group 4575" transform="translate(0 19.317)">
              <path id="Path_5459" data-name="Path 5459" d="M511.013,126.353l13.012-1.61V71.353l-13.012,1.61Z" transform="translate(-510.817 -71.13)" fill="#a8d3f1"/>
              <path id="Path_5460" data-name="Path 5460" d="M510.837,72.812l13.406-1.659V124.94L510.837,126.6ZM523.849,71.6,511.231,73.16v52.993l12.619-1.561Z" transform="translate(-510.837 -71.153)" fill="#5f8caa"/>
            </g>
          </g>
          <g id="Group_4584" data-name="Group 4584" transform="translate(0 0)">
            <g id="Group_4577" data-name="Group 4577" transform="translate(156.146)">
              <path id="Path_5461" data-name="Path 5461" d="M651.064,61.235l13.012-1.61V6.235l-13.012,1.61Z" transform="translate(-650.868 -6.012)" fill="#a8d3f1"/>
              <path id="Path_5462" data-name="Path 5462" d="M650.888,7.694l13.4-1.659V59.822l-13.4,1.658ZM663.9,6.48,651.28,8.042V61.035L663.9,59.474Z" transform="translate(-650.888 -6.035)" fill="#5f8caa"/>
            </g>
            <g id="Group_4578" data-name="Group 4578" transform="translate(130.122 3.22)">
              <path id="Path_5463" data-name="Path 5463" d="M627.722,64.123l13.012-1.61V9.123l-13.012,1.61Z" transform="translate(-627.526 -8.9)" fill="#a8d3f1"/>
              <path id="Path_5464" data-name="Path 5464" d="M627.546,10.581l13.4-1.658V62.71l-13.4,1.658Zm13.012-1.213-12.62,1.562V63.923l12.62-1.561Z" transform="translate(-627.546 -8.923)" fill="#5f8caa"/>
            </g>
            <g id="Group_4579" data-name="Group 4579" transform="translate(104.097 6.44)">
              <path id="Path_5465" data-name="Path 5465" d="M604.38,67.01l13.012-1.61V12.01L604.38,13.62Z" transform="translate(-604.184 -11.788)" fill="#a8d3f1"/>
              <path id="Path_5466" data-name="Path 5466" d="M604.2,13.469l13.406-1.658V65.6L604.2,67.255Zm13.012-1.213L604.6,13.817V66.81l12.619-1.561Z" transform="translate(-604.204 -11.811)" fill="#5f8caa"/>
            </g>
            <g id="Group_4580" data-name="Group 4580" transform="translate(78.073 9.66)">
              <path id="Path_5467" data-name="Path 5467" d="M581.039,69.9l13.012-1.61V14.9l-13.012,1.61Z" transform="translate(-580.842 -14.676)" fill="#a8d3f1"/>
              <path id="Path_5468" data-name="Path 5468" d="M580.862,16.357,594.268,14.7V68.485l-13.406,1.658Zm13.012-1.213L581.256,16.7V69.7l12.619-1.561Z" transform="translate(-580.862 -14.699)" fill="#5f8caa"/>
            </g>
            <g id="Group_4581" data-name="Group 4581" transform="translate(52.049 12.878)">
              <path id="Path_5469" data-name="Path 5469" d="M557.7,72.786l13.012-1.61V17.786L557.7,19.4Z" transform="translate(-557.501 -17.563)" fill="#a8d3f1"/>
              <path id="Path_5470" data-name="Path 5470" d="M557.521,19.244l13.4-1.658V71.373l-13.4,1.658Zm13.011-1.213-12.619,1.562V72.586l12.619-1.562Z" transform="translate(-557.521 -17.586)" fill="#5f8caa"/>
            </g>
            <g id="Group_4582" data-name="Group 4582" transform="translate(26.025 16.098)">
              <path id="Path_5471" data-name="Path 5471" d="M534.355,75.673l13.012-1.61V20.673l-13.012,1.61Z" transform="translate(-534.159 -20.451)" fill="#a8d3f1"/>
              <path id="Path_5472" data-name="Path 5472" d="M534.179,22.132l13.4-1.658V74.26l-13.4,1.658Zm13.012-1.213-12.62,1.561V75.473l12.62-1.561Z" transform="translate(-534.179 -20.474)" fill="#5f8caa"/>
            </g>
            <g id="Group_4583" data-name="Group 4583" transform="translate(0 19.318)">
              <path id="Path_5473" data-name="Path 5473" d="M511.013,78.561l13.012-1.61V23.561l-13.012,1.61Z" transform="translate(-510.817 -23.339)" fill="#a8d3f1"/>
              <path id="Path_5474" data-name="Path 5474" d="M510.837,25.02l13.406-1.658V77.148l-13.406,1.658Zm13.012-1.213-12.619,1.561V78.361L523.849,76.8Z" transform="translate(-510.837 -23.362)" fill="#5f8caa"/>
            </g>
          </g>
          <g id="Group_4592" data-name="Group 4592" transform="translate(13.012 79.085)">
            <g id="Group_4585" data-name="Group 4585" transform="translate(156.145)">
              <path id="Path_5475" data-name="Path 5475" d="M662.735,132.168l13.012-1.61V77.168l-13.012,1.61Z" transform="translate(-662.538 -76.945)" fill="#a8d3f1"/>
              <path id="Path_5476" data-name="Path 5476" d="M662.558,78.626l13.406-1.658v53.786l-13.406,1.659Zm13.012-1.213-12.619,1.561v52.995l12.619-1.562Z" transform="translate(-662.558 -76.968)" fill="#5f8caa"/>
            </g>
            <g id="Group_4586" data-name="Group 4586" transform="translate(130.122 3.22)">
              <path id="Path_5477" data-name="Path 5477" d="M639.393,135.055l13.012-1.61V80.055l-13.012,1.61Z" transform="translate(-639.197 -79.833)" fill="#a8d3f1"/>
              <path id="Path_5478" data-name="Path 5478" d="M639.217,81.514l13.4-1.658v53.786l-13.4,1.658ZM652.229,80.3l-12.62,1.561v52.995l12.62-1.562Z" transform="translate(-639.217 -79.856)" fill="#5f8caa"/>
            </g>
            <g id="Group_4587" data-name="Group 4587" transform="translate(104.097 6.439)">
              <path id="Path_5479" data-name="Path 5479" d="M616.051,137.943l13.012-1.61V82.943l-13.012,1.61Z" transform="translate(-615.855 -82.72)" fill="#a8d3f1"/>
              <path id="Path_5480" data-name="Path 5480" d="M615.875,84.4l13.4-1.659V136.53l-13.4,1.658Zm13.012-1.214L616.269,84.75v52.993l12.619-1.562Z" transform="translate(-615.875 -82.743)" fill="#5f8caa"/>
            </g>
            <g id="Group_4588" data-name="Group 4588" transform="translate(78.073 9.659)">
              <path id="Path_5481" data-name="Path 5481" d="M592.709,140.831l13.012-1.61V85.83l-13.012,1.61Z" transform="translate(-592.513 -85.608)" fill="#a8d3f1"/>
              <path id="Path_5482" data-name="Path 5482" d="M592.533,87.289l13.406-1.658v53.786l-13.406,1.659Zm13.012-1.213-12.619,1.561v52.995l12.619-1.562Z" transform="translate(-592.533 -85.631)" fill="#5f8caa"/>
            </g>
            <g id="Group_4589" data-name="Group 4589" transform="translate(52.048 12.878)">
              <path id="Path_5483" data-name="Path 5483" d="M569.368,143.718l13.012-1.61V88.718l-13.012,1.61Z" transform="translate(-569.171 -88.496)" fill="#a8d3f1"/>
              <path id="Path_5484" data-name="Path 5484" d="M569.191,90.177,582.6,88.519v53.786l-13.406,1.658ZM582.2,88.963l-12.619,1.562v52.995l12.619-1.562Z" transform="translate(-569.191 -88.519)" fill="#5f8caa"/>
            </g>
            <g id="Group_4590" data-name="Group 4590" transform="translate(26.025 16.097)">
              <path id="Path_5485" data-name="Path 5485" d="M546.026,146.606,559.038,145V91.606l-13.012,1.61Z" transform="translate(-545.83 -91.383)" fill="#a8d3f1"/>
              <path id="Path_5486" data-name="Path 5486" d="M545.85,93.065l13.4-1.659v53.787l-13.4,1.658Zm13.012-1.214-12.62,1.562v52.993l12.62-1.561Z" transform="translate(-545.85 -91.406)" fill="#5f8caa"/>
            </g>
            <g id="Group_4591" data-name="Group 4591" transform="translate(0 19.317)">
              <path id="Path_5487" data-name="Path 5487" d="M522.684,149.493l13.012-1.61V94.493L522.684,96.1Z" transform="translate(-522.488 -94.271)" fill="#a8d3f1"/>
              <path id="Path_5488" data-name="Path 5488" d="M522.508,95.952l13.4-1.658V148.08l-13.4,1.659Zm13.012-1.213L522.9,96.3v52.995l12.619-1.562Z" transform="translate(-522.508 -94.294)" fill="#5f8caa"/>
            </g>
          </g>
          <g id="Group_4600" data-name="Group 4600" transform="translate(0 106.585)">
            <g id="Group_4593" data-name="Group 4593" transform="translate(156.146)">
              <path id="Path_5489" data-name="Path 5489" d="M651.064,156.833l13.012-1.61v-53.39l-13.012,1.61Z" transform="translate(-650.868 -101.61)" fill="#a8d3f1"/>
              <path id="Path_5490" data-name="Path 5490" d="M650.888,103.292l13.4-1.659V155.42l-13.4,1.658Zm13.011-1.214L651.28,103.64v52.993l12.619-1.561Z" transform="translate(-650.888 -101.633)" fill="#5f8caa"/>
            </g>
            <g id="Group_4594" data-name="Group 4594" transform="translate(130.122 3.22)">
              <path id="Path_5491" data-name="Path 5491" d="M627.722,159.721l13.012-1.61v-53.39l-13.012,1.61Z" transform="translate(-627.526 -104.498)" fill="#a8d3f1"/>
              <path id="Path_5492" data-name="Path 5492" d="M627.546,106.179l13.4-1.658v53.786l-13.4,1.659Zm13.012-1.213-12.62,1.561v52.995l12.62-1.562Z" transform="translate(-627.546 -104.521)" fill="#5f8caa"/>
            </g>
            <g id="Group_4595" data-name="Group 4595" transform="translate(104.097 6.44)">
              <path id="Path_5493" data-name="Path 5493" d="M604.38,162.608,617.393,161v-53.39l-13.012,1.61Z" transform="translate(-604.184 -107.386)" fill="#a8d3f1"/>
              <path id="Path_5494" data-name="Path 5494" d="M604.2,109.067l13.406-1.658V161.2L604.2,162.854Zm13.012-1.213L604.6,109.415v52.993l12.619-1.561Z" transform="translate(-604.204 -107.409)" fill="#5f8caa"/>
            </g>
            <g id="Group_4596" data-name="Group 4596" transform="translate(78.073 9.659)">
              <path id="Path_5495" data-name="Path 5495" d="M581.039,165.5l13.012-1.61V110.5l-13.012,1.61Z" transform="translate(-580.842 -110.273)" fill="#a8d3f1"/>
              <path id="Path_5496" data-name="Path 5496" d="M580.862,111.955l13.406-1.659v53.786l-13.406,1.659Zm13.012-1.214L581.256,112.3V165.3l12.619-1.561Z" transform="translate(-580.862 -110.296)" fill="#5f8caa"/>
            </g>
            <g id="Group_4597" data-name="Group 4597" transform="translate(52.049 12.878)">
              <path id="Path_5497" data-name="Path 5497" d="M557.7,168.384l13.012-1.61v-53.39l-13.012,1.61Z" transform="translate(-557.501 -113.161)" fill="#a8d3f1"/>
              <path id="Path_5498" data-name="Path 5498" d="M557.521,114.842l13.4-1.658V166.97l-13.4,1.659Zm13.011-1.213-12.619,1.561v52.995l12.619-1.561Z" transform="translate(-557.521 -113.184)" fill="#5f8caa"/>
            </g>
            <g id="Group_4598" data-name="Group 4598" transform="translate(26.025 16.098)">
              <path id="Path_5499" data-name="Path 5499" d="M534.355,171.271l13.012-1.61v-53.39l-13.012,1.61Z" transform="translate(-534.159 -116.049)" fill="#a8d3f1"/>
              <path id="Path_5500" data-name="Path 5500" d="M534.179,117.73l13.4-1.658v53.786l-13.4,1.659Zm13.012-1.213-12.62,1.561v52.993l12.62-1.561Z" transform="translate(-534.179 -116.072)" fill="#5f8caa"/>
            </g>
            <g id="Group_4599" data-name="Group 4599" transform="translate(0 19.317)">
              <path id="Path_5501" data-name="Path 5501" d="M511.013,174.159l13.012-1.61v-53.39l-13.012,1.61Z" transform="translate(-510.817 -118.936)" fill="#a8d3f1"/>
              <path id="Path_5502" data-name="Path 5502" d="M510.837,120.618l13.406-1.659v53.786L510.837,174.4Zm13.012-1.214-12.619,1.562v52.992l12.619-1.56Z" transform="translate(-510.837 -118.959)" fill="#5f8caa"/>
            </g>
          </g>
          <g id="Group_4608" data-name="Group 4608" transform="translate(13.012 132.385)">
            <g id="Group_4601" data-name="Group 4601" transform="translate(156.145)">
              <path id="Path_5503" data-name="Path 5503" d="M662.735,179.974l13.012-1.61v-53.39l-13.012,1.61Z" transform="translate(-662.538 -124.751)" fill="#a8d3f1"/>
              <path id="Path_5504" data-name="Path 5504" d="M662.558,126.432l13.406-1.658V178.56l-13.406,1.659Zm13.012-1.213-12.619,1.561v52.995l12.619-1.561Z" transform="translate(-662.558 -124.774)" fill="#5f8caa"/>
            </g>
            <g id="Group_4602" data-name="Group 4602" transform="translate(130.122 3.22)">
              <path id="Path_5505" data-name="Path 5505" d="M639.393,182.861l13.012-1.61v-53.39l-13.012,1.61Z" transform="translate(-639.197 -127.639)" fill="#a8d3f1"/>
              <path id="Path_5506" data-name="Path 5506" d="M639.217,129.32l13.4-1.658v53.786l-13.4,1.658Zm13.012-1.213-12.62,1.561v52.993l12.62-1.561Z" transform="translate(-639.217 -127.662)" fill="#5f8caa"/>
            </g>
            <g id="Group_4603" data-name="Group 4603" transform="translate(104.097 6.44)">
              <path id="Path_5507" data-name="Path 5507" d="M616.051,185.749l13.012-1.61v-53.39l-13.012,1.61Z" transform="translate(-615.855 -130.527)" fill="#a8d3f1"/>
              <path id="Path_5508" data-name="Path 5508" d="M615.875,132.208l13.4-1.658v53.785l-13.4,1.659Zm13.012-1.214-12.619,1.562v52.993l12.619-1.561Z" transform="translate(-615.875 -130.55)" fill="#5f8caa"/>
            </g>
            <g id="Group_4604" data-name="Group 4604" transform="translate(78.073 9.659)">
              <path id="Path_5509" data-name="Path 5509" d="M592.709,188.636l13.012-1.61v-53.39l-13.012,1.61Z" transform="translate(-592.513 -133.414)" fill="#a8d3f1"/>
              <path id="Path_5510" data-name="Path 5510" d="M592.533,135.095l13.406-1.658v53.786l-13.406,1.659Zm13.012-1.213-12.619,1.561v52.993l12.619-1.56Z" transform="translate(-592.533 -133.437)" fill="#5f8caa"/>
            </g>
            <g id="Group_4605" data-name="Group 4605" transform="translate(52.048 12.878)">
              <path id="Path_5511" data-name="Path 5511" d="M569.368,191.524l13.012-1.61v-53.39l-13.012,1.61Z" transform="translate(-569.171 -136.302)" fill="#a8d3f1"/>
              <path id="Path_5512" data-name="Path 5512" d="M569.191,137.983l13.406-1.658v53.786l-13.406,1.659ZM582.2,136.77l-12.619,1.561v52.993l12.619-1.561Z" transform="translate(-569.191 -136.325)" fill="#5f8caa"/>
            </g>
            <g id="Group_4606" data-name="Group 4606" transform="translate(26.025 16.097)">
              <path id="Path_5513" data-name="Path 5513" d="M546.026,194.412l13.012-1.61v-53.39l-13.012,1.61Z" transform="translate(-545.83 -139.189)" fill="#a8d3f1"/>
              <path id="Path_5514" data-name="Path 5514" d="M545.85,140.871l13.4-1.659V193l-13.4,1.66Zm13.012-1.214-12.62,1.562v52.993l12.62-1.561Z" transform="translate(-545.85 -139.212)" fill="#5f8caa"/>
            </g>
            <g id="Group_4607" data-name="Group 4607" transform="translate(0 19.317)">
              <path id="Path_5515" data-name="Path 5515" d="M522.684,197.3l13.012-1.61V142.3l-13.012,1.61Z" transform="translate(-522.488 -142.077)" fill="#a8d3f1"/>
              <path id="Path_5516" data-name="Path 5516" d="M522.508,143.758l13.4-1.658v53.786l-13.4,1.659Zm13.012-1.213L522.9,144.107V197.1l12.619-1.561Z" transform="translate(-522.508 -142.1)" fill="#5f8caa"/>
            </g>
          </g>
          <g id="Group_4616" data-name="Group 4616" transform="translate(0 159.885)">
            <g id="Group_4609" data-name="Group 4609" transform="translate(156.146)">
              <path id="Path_5517" data-name="Path 5517" d="M651.064,204.639l13.012-1.61v-53.39l-13.012,1.61Z" transform="translate(-650.868 -149.416)" fill="#a8d3f1"/>
              <path id="Path_5518" data-name="Path 5518" d="M650.888,151.1l13.4-1.659v53.786l-13.4,1.659Zm13.011-1.214-12.619,1.562v52.993l12.619-1.561Z" transform="translate(-650.888 -149.439)" fill="#5f8caa"/>
            </g>
            <g id="Group_4610" data-name="Group 4610" transform="translate(130.122 3.22)">
              <path id="Path_5519" data-name="Path 5519" d="M627.722,207.527l13.012-1.61v-53.39l-13.012,1.61Z" transform="translate(-627.526 -152.304)" fill="#a8d3f1"/>
              <path id="Path_5520" data-name="Path 5520" d="M627.546,153.986l13.4-1.659v53.786l-13.4,1.659Zm13.012-1.214-12.62,1.562v52.993l12.62-1.561Z" transform="translate(-627.546 -152.327)" fill="#5f8caa"/>
            </g>
            <g id="Group_4611" data-name="Group 4611" transform="translate(104.097 6.44)">
              <path id="Path_5521" data-name="Path 5521" d="M604.38,210.414l13.012-1.61v-53.39l-13.012,1.61Z" transform="translate(-604.184 -155.192)" fill="#a8d3f1"/>
              <path id="Path_5522" data-name="Path 5522" d="M604.2,156.874l13.406-1.659V209L604.2,210.66Zm13.012-1.214L604.6,157.221v52.993l12.619-1.56Z" transform="translate(-604.204 -155.215)" fill="#5f8caa"/>
            </g>
            <g id="Group_4612" data-name="Group 4612" transform="translate(78.073 9.659)">
              <path id="Path_5523" data-name="Path 5523" d="M581.039,213.3l13.012-1.61V158.3l-13.012,1.61Z" transform="translate(-580.842 -158.079)" fill="#a8d3f1"/>
              <path id="Path_5524" data-name="Path 5524" d="M580.862,159.761l13.406-1.659v53.787l-13.406,1.658Zm13.012-1.213-12.619,1.561V213.1l12.619-1.56Z" transform="translate(-580.862 -158.102)" fill="#5f8caa"/>
            </g>
            <g id="Group_4613" data-name="Group 4613" transform="translate(52.049 12.879)">
              <path id="Path_5525" data-name="Path 5525" d="M557.7,216.189l13.012-1.61V161.19L557.7,162.8Z" transform="translate(-557.501 -160.967)" fill="#a8d3f1"/>
              <path id="Path_5526" data-name="Path 5526" d="M557.521,162.648l13.4-1.658v53.786l-13.4,1.659Zm13.011-1.212L557.913,163v52.993l12.619-1.56Z" transform="translate(-557.521 -160.99)" fill="#5f8caa"/>
            </g>
            <g id="Group_4614" data-name="Group 4614" transform="translate(26.025 16.097)">
              <path id="Path_5527" data-name="Path 5527" d="M534.355,219.077l13.012-1.61v-53.39l-13.012,1.61Z" transform="translate(-534.159 -163.854)" fill="#a8d3f1"/>
              <path id="Path_5528" data-name="Path 5528" d="M534.179,165.536l13.4-1.659v53.787l-13.4,1.659Zm13.012-1.213-12.62,1.56v52.995l12.62-1.561Z" transform="translate(-534.179 -163.877)" fill="#5f8caa"/>
            </g>
            <g id="Group_4615" data-name="Group 4615" transform="translate(0 19.317)">
              <path id="Path_5529" data-name="Path 5529" d="M511.013,221.965l13.012-1.61v-53.39l-13.012,1.61Z" transform="translate(-510.817 -166.742)" fill="#a8d3f1"/>
              <path id="Path_5530" data-name="Path 5530" d="M510.837,168.424l13.406-1.659v53.786l-13.406,1.659Zm13.012-1.214-12.619,1.561v52.995l12.619-1.561Z" transform="translate(-510.837 -166.765)" fill="#5f8caa"/>
            </g>
          </g>
          <g id="Group_4624" data-name="Group 4624" transform="translate(13.012 185.685)">
            <g id="Group_4617" data-name="Group 4617" transform="translate(156.145)">
              <path id="Path_5531" data-name="Path 5531" d="M662.735,227.78l13.012-1.61V172.78l-13.012,1.61Z" transform="translate(-662.538 -172.557)" fill="#a8d3f1"/>
              <path id="Path_5532" data-name="Path 5532" d="M662.558,174.239l13.406-1.659v53.786l-13.406,1.659Zm13.012-1.214-12.619,1.561v52.993l12.619-1.56Z" transform="translate(-662.558 -172.58)" fill="#5f8caa"/>
            </g>
            <g id="Group_4618" data-name="Group 4618" transform="translate(130.122 3.219)">
              <path id="Path_5533" data-name="Path 5533" d="M639.393,230.667l13.012-1.61v-53.39l-13.012,1.61Z" transform="translate(-639.197 -175.444)" fill="#a8d3f1"/>
              <path id="Path_5534" data-name="Path 5534" d="M639.217,177.126l13.4-1.659v53.787l-13.4,1.659Zm13.012-1.213-12.62,1.561v52.993l12.62-1.56Z" transform="translate(-639.217 -175.467)" fill="#5f8caa"/>
            </g>
            <g id="Group_4619" data-name="Group 4619" transform="translate(104.097 6.439)">
              <path id="Path_5535" data-name="Path 5535" d="M616.051,233.555l13.012-1.61v-53.39l-13.012,1.61Z" transform="translate(-615.855 -178.332)" fill="#a8d3f1"/>
              <path id="Path_5536" data-name="Path 5536" d="M615.875,180.014l13.4-1.659v53.787l-13.4,1.659Zm13.012-1.213-12.619,1.56v52.995l12.619-1.561Z" transform="translate(-615.875 -178.355)" fill="#5f8caa"/>
            </g>
            <g id="Group_4620" data-name="Group 4620" transform="translate(78.073 9.659)">
              <path id="Path_5537" data-name="Path 5537" d="M592.709,236.443l13.012-1.61v-53.39l-13.012,1.61Z" transform="translate(-592.513 -181.22)" fill="#a8d3f1"/>
              <path id="Path_5538" data-name="Path 5538" d="M592.533,182.9l13.406-1.659v53.786l-13.406,1.659Zm13.012-1.214-12.619,1.561v52.995l12.619-1.561Z" transform="translate(-592.533 -181.243)" fill="#5f8caa"/>
            </g>
            <g id="Group_4621" data-name="Group 4621" transform="translate(52.048 12.878)">
              <path id="Path_5539" data-name="Path 5539" d="M569.368,239.33l13.012-1.61V184.33l-13.012,1.61Z" transform="translate(-569.171 -184.108)" fill="#a8d3f1"/>
              <path id="Path_5540" data-name="Path 5540" d="M569.191,185.79l13.406-1.659v53.786l-13.406,1.658Zm13.012-1.214-12.619,1.561V239.13l12.619-1.56Z" transform="translate(-569.191 -184.131)" fill="#5f8caa"/>
            </g>
            <g id="Group_4622" data-name="Group 4622" transform="translate(26.025 16.098)">
              <path id="Path_5541" data-name="Path 5541" d="M546.026,242.218l13.012-1.61v-53.39l-13.012,1.61Z" transform="translate(-545.83 -186.996)" fill="#a8d3f1"/>
              <path id="Path_5542" data-name="Path 5542" d="M545.85,188.677l13.4-1.658V240.8l-13.4,1.659Zm13.012-1.213-12.62,1.56v52.995l12.62-1.561Z" transform="translate(-545.85 -187.019)" fill="#5f8caa"/>
            </g>
            <g id="Group_4623" data-name="Group 4623" transform="translate(0 19.316)">
              <path id="Path_5543" data-name="Path 5543" d="M522.684,245.106,535.7,243.5v-53.39l-13.012,1.61Z" transform="translate(-522.488 -189.882)" fill="#a8d3f1"/>
              <path id="Path_5544" data-name="Path 5544" d="M522.508,191.565l13.4-1.66v53.787l-13.4,1.659Zm13.012-1.214L522.9,191.912v52.993l12.619-1.56Z" transform="translate(-522.508 -189.905)" fill="#5f8caa"/>
            </g>
          </g>
          <g id="Group_4632" data-name="Group 4632" transform="translate(0 213.186)">
            <g id="Group_4625" data-name="Group 4625" transform="translate(156.146)">
              <path id="Path_5545" data-name="Path 5545" d="M651.064,252.445l13.012-1.61v-53.39l-13.012,1.61Z" transform="translate(-650.868 -197.223)" fill="#a8d3f1"/>
              <path id="Path_5546" data-name="Path 5546" d="M650.888,198.9l13.4-1.658v53.786l-13.4,1.658Zm13.011-1.213-12.619,1.561v52.993l12.619-1.561Z" transform="translate(-650.888 -197.246)" fill="#5f8caa"/>
            </g>
            <g id="Group_4626" data-name="Group 4626" transform="translate(130.122 3.219)">
              <path id="Path_5547" data-name="Path 5547" d="M627.722,255.333l13.012-1.61v-53.39l-13.012,1.61Z" transform="translate(-627.526 -200.11)" fill="#a8d3f1"/>
              <path id="Path_5548" data-name="Path 5548" d="M627.546,201.792l13.4-1.659v53.786l-13.4,1.659Zm13.012-1.213-12.62,1.56v52.993l12.62-1.56Z" transform="translate(-627.546 -200.133)" fill="#5f8caa"/>
            </g>
            <g id="Group_4627" data-name="Group 4627" transform="translate(104.097 6.438)">
              <path id="Path_5549" data-name="Path 5549" d="M604.38,258.22l13.012-1.61V203.22l-13.012,1.61Z" transform="translate(-604.184 -202.997)" fill="#a8d3f1"/>
              <path id="Path_5550" data-name="Path 5550" d="M604.2,204.679l13.406-1.659v53.787L604.2,258.466Zm13.012-1.213L604.6,205.027V258.02l12.619-1.561Z" transform="translate(-604.204 -203.02)" fill="#5f8caa"/>
            </g>
            <g id="Group_4628" data-name="Group 4628" transform="translate(78.073 9.657)">
              <path id="Path_5551" data-name="Path 5551" d="M581.039,261.108l13.012-1.61v-53.39l-13.012,1.61Z" transform="translate(-580.842 -205.885)" fill="#a8d3f1"/>
              <path id="Path_5552" data-name="Path 5552" d="M580.862,207.567l13.406-1.659v53.786l-13.406,1.659Zm13.012-1.213-12.619,1.56v52.995l12.619-1.561Z" transform="translate(-580.862 -205.908)" fill="#5f8caa"/>
            </g>
            <g id="Group_4629" data-name="Group 4629" transform="translate(52.049 12.877)">
              <path id="Path_5553" data-name="Path 5553" d="M557.7,264l13.012-1.61V209l-13.012,1.61Z" transform="translate(-557.501 -208.773)" fill="#a8d3f1"/>
              <path id="Path_5554" data-name="Path 5554" d="M557.521,210.455l13.4-1.659v53.786l-13.4,1.659Zm13.011-1.214L557.913,210.8V263.8l12.619-1.561Z" transform="translate(-557.521 -208.796)" fill="#5f8caa"/>
            </g>
            <g id="Group_4630" data-name="Group 4630" transform="translate(26.025 16.097)">
              <path id="Path_5555" data-name="Path 5555" d="M534.355,266.883l13.012-1.61v-53.39l-13.012,1.61Z" transform="translate(-534.159 -211.661)" fill="#a8d3f1"/>
              <path id="Path_5556" data-name="Path 5556" d="M534.179,213.343l13.4-1.659V265.47l-13.4,1.659Zm13.012-1.214-12.62,1.561v52.993l12.62-1.56Z" transform="translate(-534.179 -211.684)" fill="#5f8caa"/>
            </g>
            <g id="Group_4631" data-name="Group 4631" transform="translate(0 19.316)">
              <path id="Path_5557" data-name="Path 5557" d="M511.013,269.771l13.012-1.61v-53.39l-13.012,1.61Z" transform="translate(-510.817 -214.548)" fill="#a8d3f1"/>
              <path id="Path_5558" data-name="Path 5558" d="M510.837,216.23l13.406-1.659v53.787l-13.406,1.659Zm13.012-1.213-12.619,1.561v52.993l12.619-1.561Z" transform="translate(-510.837 -214.571)" fill="#5f8caa"/>
            </g>
          </g>
          <g id="Group_4640" data-name="Group 4640" transform="translate(13.012 238.985)">
            <g id="Group_4633" data-name="Group 4633" transform="translate(156.145)">
              <path id="Path_5559" data-name="Path 5559" d="M662.735,275.586l13.012-1.61v-53.39l-13.012,1.61Z" transform="translate(-662.538 -220.363)" fill="#a8d3f1"/>
              <path id="Path_5560" data-name="Path 5560" d="M662.558,222.045l13.406-1.659v53.787l-13.406,1.659Zm13.012-1.213-12.619,1.56v52.995l12.619-1.561Z" transform="translate(-662.558 -220.386)" fill="#5f8caa"/>
            </g>
            <g id="Group_4634" data-name="Group 4634" transform="translate(130.122 3.22)">
              <path id="Path_5561" data-name="Path 5561" d="M639.393,278.473l13.012-1.61v-53.39l-13.012,1.61Z" transform="translate(-639.197 -223.251)" fill="#a8d3f1"/>
              <path id="Path_5562" data-name="Path 5562" d="M639.217,224.933l13.4-1.659V277.06l-13.4,1.659Zm13.012-1.214-12.62,1.561v52.995l12.62-1.561Z" transform="translate(-639.217 -223.274)" fill="#5f8caa"/>
            </g>
            <g id="Group_4635" data-name="Group 4635" transform="translate(104.097 6.44)">
              <path id="Path_5563" data-name="Path 5563" d="M616.051,281.361l13.012-1.61v-53.39l-13.012,1.61Z" transform="translate(-615.855 -226.139)" fill="#a8d3f1"/>
              <path id="Path_5564" data-name="Path 5564" d="M615.875,227.821l13.4-1.659v53.785l-13.4,1.659Zm13.012-1.214-12.619,1.561v52.993l12.619-1.561Z" transform="translate(-615.875 -226.162)" fill="#5f8caa"/>
            </g>
            <g id="Group_4636" data-name="Group 4636" transform="translate(78.073 9.659)">
              <path id="Path_5565" data-name="Path 5565" d="M592.709,284.249l13.012-1.61v-53.39l-13.012,1.61Z" transform="translate(-592.513 -229.026)" fill="#a8d3f1"/>
              <path id="Path_5566" data-name="Path 5566" d="M592.533,230.708l13.406-1.659v53.786l-13.406,1.659Zm13.012-1.214-12.619,1.561v52.993l12.619-1.56Z" transform="translate(-592.533 -229.049)" fill="#5f8caa"/>
            </g>
            <g id="Group_4637" data-name="Group 4637" transform="translate(52.048 12.877)">
              <path id="Path_5567" data-name="Path 5567" d="M569.368,287.136l13.012-1.61v-53.39l-13.012,1.61Z" transform="translate(-569.171 -231.913)" fill="#a8d3f1"/>
              <path id="Path_5568" data-name="Path 5568" d="M569.191,233.6l13.406-1.659v53.787l-13.406,1.659Zm13.012-1.213-12.619,1.561v52.994l12.619-1.561Z" transform="translate(-569.191 -231.936)" fill="#5f8caa"/>
            </g>
            <g id="Group_4638" data-name="Group 4638" transform="translate(26.025 16.097)">
              <path id="Path_5569" data-name="Path 5569" d="M546.026,290.024l13.012-1.61v-53.39l-13.012,1.61Z" transform="translate(-545.83 -234.801)" fill="#a8d3f1"/>
              <path id="Path_5570" data-name="Path 5570" d="M545.85,236.483l13.4-1.659v53.787l-13.4,1.659Zm13.012-1.213-12.62,1.56v52.995l12.62-1.561Z" transform="translate(-545.85 -234.824)" fill="#5f8caa"/>
            </g>
            <g id="Group_4639" data-name="Group 4639" transform="translate(0 19.317)">
              <path id="Path_5571" data-name="Path 5571" d="M522.684,292.912,535.7,291.3v-53.39l-13.012,1.61Z" transform="translate(-522.488 -237.689)" fill="#a8d3f1"/>
              <path id="Path_5572" data-name="Path 5572" d="M522.508,239.371l13.4-1.659V291.5l-13.4,1.659Zm13.012-1.214L522.9,239.718v52.995l12.619-1.561Z" transform="translate(-522.508 -237.712)" fill="#5f8caa"/>
            </g>
          </g>
          <g id="Group_4648" data-name="Group 4648" transform="translate(0 266.485)">
            <g id="Group_4641" data-name="Group 4641" transform="translate(156.146)">
              <path id="Path_5573" data-name="Path 5573" d="M651.064,300.251l13.012-1.61v-53.39l-13.012,1.61Z" transform="translate(-650.868 -245.028)" fill="#a8d3f1"/>
              <path id="Path_5574" data-name="Path 5574" d="M650.888,246.71l13.4-1.659v53.787l-13.4,1.658ZM663.9,245.5l-12.619,1.561v52.993L663.9,298.49Z" transform="translate(-650.888 -245.051)" fill="#5f8caa"/>
            </g>
            <g id="Group_4642" data-name="Group 4642" transform="translate(130.122 3.22)">
              <path id="Path_5575" data-name="Path 5575" d="M627.722,303.139l13.012-1.61v-53.39l-13.012,1.61Z" transform="translate(-627.526 -247.916)" fill="#a8d3f1"/>
              <path id="Path_5576" data-name="Path 5576" d="M627.546,249.6l13.4-1.659v53.786l-13.4,1.659Zm13.012-1.214-12.62,1.561v52.995l12.62-1.561Z" transform="translate(-627.546 -247.939)" fill="#5f8caa"/>
            </g>
            <g id="Group_4643" data-name="Group 4643" transform="translate(104.097 6.44)">
              <path id="Path_5577" data-name="Path 5577" d="M604.38,306.026l13.012-1.61v-53.39l-13.012,1.61Z" transform="translate(-604.184 -250.804)" fill="#a8d3f1"/>
              <path id="Path_5578" data-name="Path 5578" d="M604.2,252.486l13.406-1.659v53.786L604.2,306.272Zm13.012-1.214L604.6,252.833v52.993l12.619-1.56Z" transform="translate(-604.204 -250.827)" fill="#5f8caa"/>
            </g>
            <g id="Group_4644" data-name="Group 4644" transform="translate(78.073 9.659)">
              <path id="Path_5579" data-name="Path 5579" d="M581.039,308.914l13.012-1.61v-53.39l-13.012,1.61Z" transform="translate(-580.842 -253.691)" fill="#a8d3f1"/>
              <path id="Path_5580" data-name="Path 5580" d="M580.862,255.373l13.406-1.659V307.5l-13.406,1.659Zm13.012-1.213-12.619,1.561v52.993l12.619-1.56Z" transform="translate(-580.862 -253.714)" fill="#5f8caa"/>
            </g>
            <g id="Group_4645" data-name="Group 4645" transform="translate(52.049 12.878)">
              <path id="Path_5581" data-name="Path 5581" d="M557.7,311.8l13.012-1.61V256.8l-13.012,1.61Z" transform="translate(-557.501 -256.579)" fill="#a8d3f1"/>
              <path id="Path_5582" data-name="Path 5582" d="M557.521,258.261l13.4-1.659v53.787l-13.4,1.658Zm13.011-1.213-12.619,1.56V311.6l12.619-1.56Z" transform="translate(-557.521 -256.602)" fill="#5f8caa"/>
            </g>
            <g id="Group_4646" data-name="Group 4646" transform="translate(26.025 16.098)">
              <path id="Path_5583" data-name="Path 5583" d="M534.355,314.689l13.012-1.61v-53.39l-13.012,1.61Z" transform="translate(-534.159 -259.467)" fill="#a8d3f1"/>
              <path id="Path_5584" data-name="Path 5584" d="M534.179,261.148l13.4-1.658v53.786l-13.4,1.659Zm13.012-1.213-12.62,1.561v52.993l12.62-1.561Z" transform="translate(-534.179 -259.49)" fill="#5f8caa"/>
            </g>
            <g id="Group_4647" data-name="Group 4647" transform="translate(0 19.317)">
              <path id="Path_5585" data-name="Path 5585" d="M511.013,317.577l13.012-1.61v-53.39l-13.012,1.61Z" transform="translate(-510.817 -262.354)" fill="#a8d3f1"/>
              <path id="Path_5586" data-name="Path 5586" d="M510.837,264.036l13.406-1.659v53.786l-13.406,1.659Zm13.012-1.214-12.619,1.561v52.995l12.619-1.561Z" transform="translate(-510.837 -262.377)" fill="#5f8caa"/>
            </g>
          </g>
        </g>
      </g>
    </g>
    <path id="Path_5588" data-name="Path 5588" d="M523.056,124.151l7.139-.534a2.4,2.4,0,0,0,2.22-2.393V111.055a2.4,2.4,0,0,0-2.578-2.392l-7.139.533a2.4,2.4,0,0,0-2.221,2.393v10.169A2.4,2.4,0,0,0,523.056,124.151Z" transform="translate(12.419 6.994)" fill="#fff"/>
    <path id="Path_5589" data-name="Path 5589" d="M524.792,120.041l3.336-.25a1.14,1.14,0,0,0,1.055-1.137v-5.512a1.139,1.139,0,0,0-1.224-1.136l-3.337.249a1.141,1.141,0,0,0-1.055,1.137V118.9A1.141,1.141,0,0,0,524.792,120.041Z" transform="translate(12.774 7.378)" fill="#1579b9"/>
    <path id="Path_5590" data-name="Path 5590" d="M524.111,120.041l3.337-.25a1.141,1.141,0,0,0,1.055-1.137v-5.512a1.14,1.14,0,0,0-1.225-1.136l-3.336.249a1.14,1.14,0,0,0-1.055,1.137V118.9A1.14,1.14,0,0,0,524.111,120.041Z" transform="translate(12.696 7.378)" fill="#3493d1"/>
    <g id="Group_4654" data-name="Group 4654" transform="translate(412.415 47.801)">
      <g id="Group_4653" data-name="Group 4653" clip-path="url(#clip-path)">
        <g id="Group_4652" data-name="Group 4652" transform="translate(143.693 15.822)">
          <path id="Path_5591" data-name="Path 5591" d="M609.165,249.343a7.569,7.569,0,0,0,7.561-7.561V71.317a7.555,7.555,0,0,0-8.575-7.492l-58.544,7.923a7.588,7.588,0,0,0-6.548,7.493v162.54a7.569,7.569,0,0,0,7.561,7.561Z" transform="translate(-541.093 -61.789)" fill="#79b0dd"/>
          <path id="Path_5592" data-name="Path 5592" d="M609.378,65.924a5.6,5.6,0,0,1,5.585,5.6V241.984a5.6,5.6,0,0,1-5.595,5.595H550.824a5.6,5.6,0,0,1-5.6-5.595V79.444a5.6,5.6,0,0,1,4.845-5.545l58.544-7.924a5.692,5.692,0,0,1,.76-.051m0-3.932a9.6,9.6,0,0,0-1.288.087L549.546,70a9.561,9.561,0,0,0-8.25,9.441v162.54a9.538,9.538,0,0,0,9.528,9.527h58.544a9.538,9.538,0,0,0,9.528-9.527V71.52a9.534,9.534,0,0,0-9.518-9.528Z" transform="translate(-541.296 -61.992)" fill="#88c7ea"/>
        </g>
      </g>
    </g>
    <g id="Group_4655" data-name="Group 4655" transform="translate(568.979 79.594)">
      <path id="Path_5594" data-name="Path 5594" d="M602,78.111V115.6l-47.582,5.165V84.381L602,78.111m1.573-1.794L552.841,83v39.521l50.728-5.507v-40.7Z" transform="translate(-552.841 -76.317)" fill="#a5e0f9"/>
    </g>
    <path id="Path_5595" data-name="Path 5595" d="M603.1,165.239h0a2.687,2.687,0,0,0,2.687-2.687V148.133a2.687,2.687,0,0,0-2.687-2.687h0a2.687,2.687,0,0,0-2.687,2.687v14.419A2.687,2.687,0,0,0,603.1,165.239Z" transform="translate(21.606 11.222)" fill="#fdbe42"/>
    <path id="Path_5596" data-name="Path 5596" d="M602.878,161.84h0a.54.54,0,0,0,.541-.541v-2.7a.54.54,0,0,0-.541-.541h0a.541.541,0,0,0-.541.541v2.7A.541.541,0,0,0,602.878,161.84Z" transform="translate(21.827 12.671)" fill="#e0925c"/>
    <path id="Path_5597" data-name="Path 5597" d="M482.134,128.036l3.044,16.339-13.3,2.029L467.5,130.172Z" transform="translate(6.331 9.221)" fill="url(#linear-gradient)"/>
    <g id="Group_4658" data-name="Group 4658" transform="translate(412.415 47.801)">
      <g id="Group_4657" data-name="Group 4657" clip-path="url(#clip-path)">
        <g id="Group_4656" data-name="Group 4656" transform="translate(155.49 81.032)">
          <path id="Path_5598" data-name="Path 5598" d="M552.138,246.949a.791.791,0,0,1-.261-.585V126.1a.786.786,0,0,1,.712-.783l50.728-4.832a.8.8,0,0,1,.6.2.789.789,0,0,1,.258.582V240.857a.787.787,0,0,1-.7.783l-50.728,5.505a.723.723,0,0,1-.085,0A.789.789,0,0,1,552.138,246.949ZM602.6,122.131l-49.155,4.682V245.488l49.155-5.336Z" transform="translate(-551.877 -120.48)" fill="#a5e0f9"/>
        </g>
      </g>
    </g>
    <path id="Path_5600" data-name="Path 5600" d="M594.736,152.5l8.072-1.073a1.229,1.229,0,0,0,1.057-1.379h0a1.23,1.23,0,0,0-1.38-1.057l-8.072,1.073a1.228,1.228,0,0,0-1.057,1.379h0A1.229,1.229,0,0,0,594.736,152.5Z" transform="translate(20.793 11.628)" fill="#e0925c"/>
    <g id="Group_4736" data-name="Group 4736" transform="translate(412.702 47.801)">
      <g id="Group_4727" data-name="Group 4727">
        <g id="Group_4726" data-name="Group 4726" clip-path="url(#clip-path-4)">
          <g id="Group_4725" data-name="Group 4725" transform="translate(205.487 127.934)">
            <g id="Group_4721" data-name="Group 4721">
              <g id="Group_4676" data-name="Group 4676" transform="translate(19.011 24.781)">
                <g id="Group_4674" data-name="Group 4674">
                  <g id="Group_4659" data-name="Group 4659" transform="translate(2.334 17.986)">
                    <path id="Path_5601" data-name="Path 5601" d="M619.144,207.332c.844-.3,1.025-1.967.4-3.729s-1.81-2.949-2.652-2.651-1.025,1.967-.4,3.728S618.3,207.63,619.144,207.332Z" transform="translate(-616.123 -200.906)" fill="#fff"/>
                  </g>
                  <g id="Group_4660" data-name="Group 4660" transform="translate(0 23.27)">
                    <path id="Path_5602" data-name="Path 5602" d="M617.213,212.417c.889-.313,1.079-2.073.425-3.929s-1.905-3.107-2.794-2.794-1.079,2.073-.426,3.929S616.325,212.73,617.213,212.417Z" transform="translate(-614.03 -205.646)" fill="#fff"/>
                  </g>
                  <g id="Group_4661" data-name="Group 4661" transform="translate(3.769 26.17)">
                    <path id="Path_5603" data-name="Path 5603" d="M617.506,212.108c.432.838,2.2.786,3.95-.116s2.817-2.312,2.386-3.15-2.2-.786-3.95.116S617.073,211.271,617.506,212.108Z" transform="translate(-617.41 -208.246)" fill="#fff"/>
                  </g>
                  <g id="Group_4662" data-name="Group 4662" transform="translate(5.847 21.883)">
                    <path id="Path_5604" data-name="Path 5604" d="M625.865,205.361c-.214-.869-1.859-1.21-3.673-.761s-3.111,1.516-2.9,2.385,1.859,1.209,3.673.76S626.081,206.229,625.865,205.361Z" transform="translate(-619.274 -204.402)" fill="#fff"/>
                  </g>
                  <g id="Group_4663" data-name="Group 4663" transform="translate(4.789 13.074)">
                    <path id="Path_5605" data-name="Path 5605" d="M621.346,202.927c.843-.3,1.023-1.967.4-3.728s-1.808-2.95-2.652-2.652-1.024,1.967-.4,3.729S620.5,203.225,621.346,202.927Z" transform="translate(-618.325 -196.501)" fill="#fff"/>
                  </g>
                  <g id="Group_4664" data-name="Group 4664" transform="translate(8.189 17.545)">
                    <path id="Path_5606" data-name="Path 5606" d="M628.044,201.612c-.159-.881-1.779-1.323-3.618-.99s-3.2,1.318-3.039,2.2,1.779,1.323,3.618.99S628.2,202.492,628.044,201.612Z" transform="translate(-621.375 -200.51)" fill="#fff"/>
                  </g>
                  <g id="Group_4665" data-name="Group 4665" transform="translate(8.642 9.134)">
                    <path id="Path_5607" data-name="Path 5607" d="M623.71,199.207c.824-.1,1.319-1.581,1.106-3.3s-1.056-3.034-1.88-2.932-1.32,1.581-1.106,3.3S622.885,199.31,623.71,199.207Z" transform="translate(-621.78 -192.967)" fill="#fff"/>
                  </g>
                  <g id="Group_4666" data-name="Group 4666" transform="translate(10.663 13.399)">
                    <path id="Path_5608" data-name="Path 5608" d="M629.787,197.814c-.148-.817-1.652-1.229-3.359-.92s-2.971,1.224-2.823,2.041,1.652,1.229,3.359.919S629.936,198.632,629.787,197.814Z" transform="translate(-623.593 -196.792)" fill="#fff"/>
                  </g>
                  <g id="Group_4667" data-name="Group 4667" transform="translate(12.149 5.58)">
                    <path id="Path_5609" data-name="Path 5609" d="M626.149,195.528c.76.043,1.449-1.207,1.54-2.8s-.453-2.909-1.212-2.952-1.451,1.209-1.541,2.8S625.389,195.485,626.149,195.528Z" transform="translate(-624.926 -189.779)" fill="#fff"/>
                  </g>
                  <g id="Group_4668" data-name="Group 4668" transform="translate(13.758 9.591)">
                    <path id="Path_5610" data-name="Path 5610" d="M626.389,195.573c.183.739,1.582,1.029,3.125.648s2.647-1.29,2.464-2.029-1.582-1.029-3.125-.648S626.206,194.834,626.389,195.573Z" transform="translate(-626.369 -193.376)" fill="#fff"/>
                  </g>
                  <g id="Group_4669" data-name="Group 4669" transform="translate(16.002 2.51)">
                    <path id="Path_5611" data-name="Path 5611" d="M629.128,192.1c.668.161,1.484-.841,1.821-2.237s.068-2.659-.6-2.821-1.484.84-1.821,2.237S628.459,191.938,629.128,192.1Z" transform="translate(-628.382 -187.026)" fill="#fff"/>
                  </g>
                  <g id="Group_4670" data-name="Group 4670" transform="translate(16.896 6.074)">
                    <path id="Path_5612" data-name="Path 5612" d="M629.2,192.207c.165.668,1.429.93,2.824.585s2.392-1.166,2.227-1.834-1.429-.929-2.824-.584S629.037,191.539,629.2,192.207Z" transform="translate(-629.184 -190.222)" fill="#fff"/>
                  </g>
                  <g id="Group_4671" data-name="Group 4671" transform="translate(19.845)">
                    <path id="Path_5613" data-name="Path 5613" d="M632.307,188.968c.55.212,1.353-.549,1.794-1.7s.353-2.251-.2-2.462-1.354.549-1.794,1.7S631.758,188.758,632.307,188.968Z" transform="translate(-631.829 -184.774)" fill="#fff"/>
                  </g>
                  <g id="Group_4672" data-name="Group 4672" transform="translate(22.14 0.389)">
                    <path id="Path_5614" data-name="Path 5614" d="M634.021,187.991c.355.4,1.313.115,2.14-.628s1.207-1.666.852-2.061-1.313-.114-2.14.629S633.665,187.595,634.021,187.991Z" transform="translate(-633.888 -185.123)" fill="#fff"/>
                  </g>
                  <g id="Group_4673" data-name="Group 4673" transform="translate(20.729 3.498)">
                    <path id="Path_5615" data-name="Path 5615" d="M632.625,189.146c.065.528,1.012.845,2.114.708s1.943-.676,1.878-1.2-1.012-.845-2.114-.708S632.56,188.619,632.625,189.146Z" transform="translate(-632.622 -187.911)" fill="#fff"/>
                  </g>
                </g>
                <g id="Group_4675" data-name="Group 4675" transform="translate(3.432 2.909)">
                  <path id="Path_5616" data-name="Path 5616" d="M617.34,215.022a.232.232,0,0,0,.226-.181c2.116-9.294,10.652-21.673,18.637-27.035a.231.231,0,1,0-.259-.384c-8.068,5.416-16.69,17.925-18.831,27.316a.233.233,0,0,0,.175.278A.278.278,0,0,0,617.34,215.022Z" transform="translate(-617.108 -187.383)" fill="#1579b9"/>
                </g>
              </g>
              <g id="Group_4702" data-name="Group 4702" transform="translate(12.86)">
                <g id="Group_4700" data-name="Group 4700">
                  <g id="Group_4677" data-name="Group 4677" transform="translate(0 48.34)">
                    <path id="Path_5617" data-name="Path 5617" d="M612.9,212c.786-.52.545-2.272-.538-3.914s-2.6-2.554-3.388-2.035-.545,2.272.539,3.915S612.114,212.52,612.9,212Z" transform="translate(-608.513 -205.905)" fill="#6cadd8"/>
                  </g>
                  <g id="Group_4678" data-name="Group 4678" transform="translate(4.817 49.999)">
                    <path id="Path_5618" data-name="Path 5618" d="M612.979,211.781c.52.787,2.272.546,3.914-.539s2.554-2.6,2.035-3.388-2.272-.545-3.914.54S612.459,210.994,612.979,211.781Z" transform="translate(-612.833 -207.393)" fill="#6cadd8"/>
                  </g>
                  <g id="Group_4679" data-name="Group 4679" transform="translate(1.045 43.323)">
                    <path id="Path_5619" data-name="Path 5619" d="M613.964,206.927c.707-.55.349-2.191-.8-3.666s-2.649-2.225-3.355-1.677-.35,2.191.8,3.666S613.258,207.476,613.964,206.927Z" transform="translate(-609.449 -201.405)" fill="#6cadd8"/>
                  </g>
                  <g id="Group_4680" data-name="Group 4680" transform="translate(5.937 44.655)">
                    <path id="Path_5620" data-name="Path 5620" d="M619.684,203.059c-.479-.756-2.146-.559-3.725.44s-2.471,2.422-1.992,3.178,2.146.559,3.725-.44S620.162,203.815,619.684,203.059Z" transform="translate(-613.837 -202.6)" fill="#6cadd8"/>
                  </g>
                  <g id="Group_4681" data-name="Group 4681" transform="translate(1.702 38.394)">
                    <path id="Path_5621" data-name="Path 5621" d="M614.812,202.285c.672-.59.219-2.206-1.013-3.611s-2.776-2.064-3.448-1.474-.219,2.206,1.013,3.611S614.14,202.875,614.812,202.285Z" transform="translate(-610.039 -196.984)" fill="#6cadd8"/>
                  </g>
                  <g id="Group_4682" data-name="Group 4682" transform="translate(6.782 39.745)">
                    <path id="Path_5622" data-name="Path 5622" d="M620.452,198.659c-.476-.757-2.144-.566-3.726.428s-2.478,2.414-2,3.171,2.144.566,3.726-.427S620.928,199.417,620.452,198.659Z" transform="translate(-614.596 -198.196)" fill="#6cadd8"/>
                  </g>
                  <g id="Group_4683" data-name="Group 4683" transform="translate(3.103 33.802)">
                    <path id="Path_5623" data-name="Path 5623" d="M615.581,197.917c.644-.524.279-2.04-.817-3.386s-2.505-2.01-3.15-1.486-.279,2.04.817,3.386S614.936,198.441,615.581,197.917Z" transform="translate(-611.296 -192.865)" fill="#6cadd8"/>
                  </g>
                  <g id="Group_4684" data-name="Group 4684" transform="translate(7.353 34.433)">
                    <path id="Path_5624" data-name="Path 5624" d="M619.962,193.705c-.56-.613-2.053-.164-3.335,1.006s-1.867,2.613-1.308,3.228,2.053.164,3.335-1S620.522,194.32,619.962,193.705Z" transform="translate(-615.108 -193.431)" fill="#6cadd8"/>
                  </g>
                  <g id="Group_4685" data-name="Group 4685" transform="translate(4.244 28.847)">
                    <path id="Path_5625" data-name="Path 5625" d="M615.89,193.326c.632-.424.428-1.839-.456-3.16s-2.115-2.048-2.747-1.624-.429,1.837.456,3.159S615.257,193.748,615.89,193.326Z" transform="translate(-612.319 -188.421)" fill="#6cadd8"/>
                  </g>
                  <g id="Group_4686" data-name="Group 4686" transform="translate(8.122 29.238)">
                    <path id="Path_5626" data-name="Path 5626" d="M616.09,193.407c.591.479,1.883-.133,2.884-1.367s1.335-2.625.744-3.105-1.883.133-2.884,1.368S615.5,192.926,616.09,193.407Z" transform="translate(-615.798 -188.772)" fill="#6cadd8"/>
                  </g>
                  <g id="Group_4687" data-name="Group 4687" transform="translate(5.303 23.937)">
                    <path id="Path_5627" data-name="Path 5627" d="M616.387,188.523c.583-.365.437-1.648-.324-2.865s-1.853-1.909-2.436-1.543-.438,1.648.324,2.865S615.8,188.889,616.387,188.523Z" transform="translate(-613.269 -184.017)" fill="#6cadd8"/>
                  </g>
                  <g id="Group_4688" data-name="Group 4688" transform="translate(8.496 24.086)">
                    <path id="Path_5628" data-name="Path 5628" d="M616.513,188.721c.593.349,1.665-.371,2.394-1.609s.84-2.524.246-2.873-1.663.371-2.393,1.609S615.921,188.372,616.513,188.721Z" transform="translate(-616.133 -184.151)" fill="#6cadd8"/>
                  </g>
                  <g id="Group_4689" data-name="Group 4689" transform="translate(6.024 19.588)">
                    <path id="Path_5629" data-name="Path 5629" d="M616.4,184.094c.517-.282.458-1.387-.13-2.466s-1.486-1.727-2-1.445-.459,1.387.13,2.466S615.885,184.376,616.4,184.094Z" transform="translate(-613.915 -180.117)" fill="#6cadd8"/>
                  </g>
                  <g id="Group_4690" data-name="Group 4690" transform="translate(8.632 19.898)">
                    <path id="Path_5630" data-name="Path 5630" d="M616.481,183.981c.457.371,1.457-.1,2.232-1.057s1.032-2.031.575-2.4-1.457.1-2.232,1.058S616.024,183.609,616.481,183.981Z" transform="translate(-616.255 -180.395)" fill="#6cadd8"/>
                  </g>
                  <g id="Group_4691" data-name="Group 4691" transform="translate(6.213 14.385)">
                    <path id="Path_5631" data-name="Path 5631" d="M616.572,179.426c.517-.282.458-1.386-.13-2.466s-1.487-1.726-2-1.444-.458,1.386.132,2.466S616.055,179.709,616.572,179.426Z" transform="translate(-614.085 -175.45)" fill="#6cadd8"/>
                  </g>
                  <g id="Group_4692" data-name="Group 4692" transform="translate(8.821 14.695)">
                    <path id="Path_5632" data-name="Path 5632" d="M616.651,179.314c.457.371,1.456-.1,2.232-1.058s1.032-2.03.574-2.4-1.456.1-2.231,1.057S616.193,178.942,616.651,179.314Z" transform="translate(-616.424 -175.727)" fill="#6cadd8"/>
                  </g>
                  <g id="Group_4693" data-name="Group 4693" transform="translate(6.053 9.662)">
                    <path id="Path_5633" data-name="Path 5633" d="M616.543,174.793c.462-.309.314-1.34-.33-2.3s-1.542-1.5-2-1.187-.313,1.34.331,2.3S616.082,175.1,616.543,174.793Z" transform="translate(-613.941 -171.213)" fill="#6cadd8"/>
                  </g>
                  <g id="Group_4694" data-name="Group 4694" transform="translate(8.708 9.563)">
                    <path id="Path_5634" data-name="Path 5634" d="M616.589,174.7c.46.31,1.359-.22,2.007-1.182s.8-1.993.337-2.3-1.359.219-2.006,1.181S616.129,174.388,616.589,174.7Z" transform="translate(-616.323 -171.124)" fill="#6cadd8"/>
                  </g>
                  <g id="Group_4695" data-name="Group 4695" transform="translate(5.835 5.826)">
                    <path id="Path_5635" data-name="Path 5635" d="M616.37,170.818c.388-.322.157-1.24-.516-2.049s-1.532-1.205-1.92-.883-.157,1.24.515,2.049S615.983,171.14,616.37,170.818Z" transform="translate(-613.746 -167.773)" fill="#6cadd8"/>
                  </g>
                  <g id="Group_4696" data-name="Group 4696" transform="translate(8.428 5.325)">
                    <path id="Path_5636" data-name="Path 5636" d="M616.382,170.745c.445.236,1.206-.326,1.7-1.255s.533-1.875.087-2.112-1.206.326-1.7,1.255S615.936,170.508,616.382,170.745Z" transform="translate(-616.072 -167.323)" fill="#6cadd8"/>
                  </g>
                  <g id="Group_4697" data-name="Group 4697" transform="translate(5.763 2.207)">
                    <path id="Path_5637" data-name="Path 5637" d="M615.915,167.095c.327-.274.127-1.05-.447-1.733s-1.3-1.012-1.63-.738-.126,1.05.447,1.733S615.589,167.369,615.915,167.095Z" transform="translate(-613.681 -164.527)" fill="#6cadd8"/>
                  </g>
                  <g id="Group_4698" data-name="Group 4698" transform="translate(6.601)">
                    <path id="Path_5638" data-name="Path 5638" d="M615.628,165.126c.339-.116.416-.784.173-1.491s-.715-1.186-1.054-1.07-.416.784-.173,1.492S615.289,165.242,615.628,165.126Z" transform="translate(-614.433 -162.547)" fill="#6cadd8"/>
                  </g>
                  <g id="Group_4699" data-name="Group 4699" transform="translate(7.966 1.763)">
                    <path id="Path_5639" data-name="Path 5639" d="M615.923,167.033c.378.2,1.02-.282,1.433-1.071s.441-1.591.063-1.788-1.019.282-1.433,1.071S615.545,166.835,615.923,167.033Z" transform="translate(-615.658 -164.129)" fill="#6cadd8"/>
                  </g>
                </g>
                <g id="Group_4701" data-name="Group 4701" transform="translate(4.264 2.363)">
                  <path id="Path_5640" data-name="Path 5640" d="M612.569,217.633a.232.232,0,0,0,.225-.177c.072-.307,7.25-30.83,3.24-52.6a.23.23,0,0,0-.27-.185.233.233,0,0,0-.185.27c3.993,21.673-3.163,52.1-3.235,52.406a.231.231,0,0,0,.172.279A.22.22,0,0,0,612.569,217.633Z" transform="translate(-612.337 -164.667)" fill="#1579b9"/>
                </g>
              </g>
              <g id="Group_4720" data-name="Group 4720" transform="translate(0 20.644)">
                <g id="Group_4718" data-name="Group 4718">
                  <g id="Group_4703" data-name="Group 4703" transform="translate(5.829 28.783)">
                    <path id="Path_5641" data-name="Path 5641" d="M607.143,212.547c.721-.608.279-2.32-.989-3.826s-2.88-2.234-3.6-1.627-.278,2.32.99,3.825S606.423,213.154,607.143,212.547Z" transform="translate(-602.207 -206.88)" fill="#a8d3f1"/>
                  </g>
                  <g id="Group_4704" data-name="Group 4704" transform="translate(11.084 28.67)">
                    <path id="Path_5642" data-name="Path 5642" d="M607.236,212.309c.7.631,2.336-.042,3.655-1.5s1.82-3.159,1.119-3.791-2.336.042-3.655,1.5S606.535,211.677,607.236,212.309Z" transform="translate(-606.919 -206.779)" fill="#a8d3f1"/>
                  </g>
                  <g id="Group_4705" data-name="Group 4705" transform="translate(5.423 24.215)">
                    <path id="Path_5643" data-name="Path 5643" d="M607.391,207.264c.544-.71-.219-2.206-1.7-3.343s-3.127-1.48-3.671-.768.219,2.206,1.7,3.341S606.848,207.974,607.391,207.264Z" transform="translate(-601.842 -202.783)" fill="#a8d3f1"/>
                  </g>
                  <g id="Group_4706" data-name="Group 4706" transform="translate(11.145 23.271)">
                    <path id="Path_5644" data-name="Path 5644" d="M611.872,202.171c-.656-.609-2.218.006-3.491,1.372s-1.774,2.97-1.119,3.58,2.218,0,3.491-1.372S612.526,202.781,611.872,202.171Z" transform="translate(-606.974 -201.936)" fill="#a8d3f1"/>
                  </g>
                  <g id="Group_4707" data-name="Group 4707" transform="translate(4.364 19.457)">
                    <path id="Path_5645" data-name="Path 5645" d="M606.814,202.48c.459-.767-.467-2.167-2.069-3.128s-3.275-1.116-3.735-.349.467,2.169,2.069,3.128S606.354,203.248,606.814,202.48Z" transform="translate(-600.892 -198.515)" fill="#a8d3f1"/>
                  </g>
                  <g id="Group_4708" data-name="Group 4708" transform="translate(10.484 18.062)">
                    <path id="Path_5646" data-name="Path 5646" d="M611.064,197.466c-.685-.575-2.214.117-3.416,1.548s-1.622,3.056-.938,3.631,2.214-.117,3.417-1.546S611.749,198.042,611.064,197.466Z" transform="translate(-606.381 -197.263)" fill="#a8d3f1"/>
                  </g>
                  <g id="Group_4709" data-name="Group 4709" transform="translate(3.981 14.612)">
                    <path id="Path_5647" data-name="Path 5647" d="M606.01,197.907c.436-.707-.407-2.019-1.883-2.93s-3.027-1.077-3.463-.37.407,2.019,1.883,2.93S605.573,198.614,606.01,197.907Z" transform="translate(-600.549 -194.169)" fill="#a8d3f1"/>
                  </g>
                  <g id="Group_4710" data-name="Group 4710" transform="translate(9.138 12.759)">
                    <path id="Path_5648" data-name="Path 5648" d="M608.67,192.6c-.73-.4-1.993.52-2.821,2.044s-.905,3.083-.175,3.479,1.992-.518,2.82-2.044S609.4,193,608.67,192.6Z" transform="translate(-605.174 -192.507)" fill="#a8d3f1"/>
                  </g>
                  <g id="Group_4711" data-name="Group 4711" transform="translate(3.017 10.394)">
                    <path id="Path_5649" data-name="Path 5649" d="M604.6,193.946c.421-.634-.31-1.862-1.633-2.743s-2.738-1.08-3.161-.446.31,1.862,1.633,2.742S604.176,194.579,604.6,193.946Z" transform="translate(-599.684 -190.386)" fill="#a8d3f1"/>
                  </g>
                  <g id="Group_4712" data-name="Group 4712" transform="translate(7.794 8.286)">
                    <path id="Path_5650" data-name="Path 5650" d="M604.706,194.045c.73.215,1.688-.845,2.138-2.369s.225-2.936-.505-3.152-1.687.845-2.138,2.369S603.976,193.829,604.706,194.045Z" transform="translate(-603.969 -188.496)" fill="#a8d3f1"/>
                  </g>
                  <g id="Group_4713" data-name="Group 4713" transform="translate(1.757 6.174)">
                    <path id="Path_5651" data-name="Path 5651" d="M603.015,189.787c.376-.575-.294-1.679-1.5-2.465s-2.482-.955-2.859-.379.294,1.679,1.5,2.465S602.638,190.364,603.015,189.787Z" transform="translate(-598.554 -186.602)" fill="#a8d3f1"/>
                  </g>
                  <g id="Group_4714" data-name="Group 4714" transform="translate(5.712 4.183)">
                    <path id="Path_5652" data-name="Path 5652" d="M603.11,189.995c.685.068,1.355-1.036,1.5-2.465s-.3-2.643-.981-2.712-1.356,1.035-1.5,2.465S602.425,189.926,603.11,189.995Z" transform="translate(-602.102 -184.815)" fill="#a8d3f1"/>
                  </g>
                  <g id="Group_4715" data-name="Group 4715" transform="translate(0 2.99)">
                    <path id="Path_5653" data-name="Path 5653" d="M601.007,186.144c.268-.525-.4-1.4-1.5-1.961s-2.2-.586-2.469-.061.4,1.4,1.5,1.962S600.74,186.669,601.007,186.144Z" transform="translate(-596.978 -183.745)" fill="#a8d3f1"/>
                  </g>
                  <g id="Group_4716" data-name="Group 4716" transform="translate(0.704)">
                    <path id="Path_5654" data-name="Path 5654" d="M600.206,184.416c.43-.312.251-1.294-.4-2.193s-1.53-1.376-1.96-1.062-.251,1.293.4,2.193S599.775,184.728,600.206,184.416Z" transform="translate(-597.61 -181.064)" fill="#a8d3f1"/>
                  </g>
                  <g id="Group_4717" data-name="Group 4717" transform="translate(3.606 1.016)">
                    <path id="Path_5655" data-name="Path 5655" d="M601.214,186c.532-.01.945-.919.925-2.029s-.469-2-1-1.993-.947.919-.925,2.03S600.682,186.008,601.214,186Z" transform="translate(-600.212 -181.975)" fill="#a8d3f1"/>
                  </g>
                </g>
                <g id="Group_4719" data-name="Group 4719" transform="translate(2.708 2.651)">
                  <path id="Path_5656" data-name="Path 5656" d="M607.694,215.475a.232.232,0,0,0,.231-.211c1.076-11.834-3.289-24.458-8.093-31.718a.231.231,0,1,0-.386.255c4.758,7.193,9.084,19.7,8.018,31.422a.23.23,0,0,0,.21.251Z" transform="translate(-599.407 -183.442)" fill="#1579b9"/>
                </g>
              </g>
            </g>
            <g id="Group_4724" data-name="Group 4724" transform="translate(3.979 54.107)">
              <g id="Group_4722" data-name="Group 4722" transform="translate(2.005 3.149)">
                <path id="Path_5657" data-name="Path 5657" d="M614.218,213.9H626.09l-7.668,18.811h-8.41L602.345,213.9Z" transform="translate(-602.345 -213.901)" fill="#1579b9"/>
              </g>
              <g id="Group_4723" data-name="Group 4723">
                <rect id="Rectangle_2342" data-name="Rectangle 2342" width="27.754" height="4.228" rx="0.85" transform="translate(27.754 4.228) rotate(180)" fill="#1579b9"/>
              </g>
            </g>
          </g>
        </g>
      </g>
      <g id="Group_4735" data-name="Group 4735" transform="translate(6.383 66.407)">
        <ellipse id="Ellipse_465" data-name="Ellipse 465" cx="18.728" cy="42.66" rx="18.728" ry="42.66" fill="#a8d3f1"/>
        <g id="Group_4732" data-name="Group 4732" transform="translate(6.707 35.917)">
          <g id="Group_4728" data-name="Group 4728" transform="translate(11.302)">
            <path id="Path_5659" data-name="Path 5659" d="M435.269,236.55a.719.719,0,0,0,.719-.719V140.3a.719.719,0,0,0-1.437,0v95.535A.718.718,0,0,0,435.269,236.55Z" transform="translate(-434.551 -139.578)" fill="#86bde6"/>
          </g>
          <g id="Group_4729" data-name="Group 4729" transform="translate(0 17.413)">
            <path id="Path_5660" data-name="Path 5660" d="M436.434,167.935a.719.719,0,0,0,.508-1.228l-11.3-11.3a.718.718,0,0,0-1.016,1.016l11.3,11.3A.717.717,0,0,0,436.434,167.935Z" transform="translate(-424.414 -155.196)" fill="#86bde6"/>
          </g>
          <g id="Group_4730" data-name="Group 4730" transform="translate(5.567 8.791)">
            <path id="Path_5661" data-name="Path 5661" d="M435.86,154.634a.719.719,0,0,0,.508-1.226l-5.734-5.734a.719.719,0,0,0-1.017,1.016l5.734,5.734A.717.717,0,0,0,435.86,154.634Z" transform="translate(-429.407 -147.463)" fill="#86bde6"/>
          </g>
          <g id="Group_4731" data-name="Group 4731" transform="translate(11.302 13.948)">
            <path id="Path_5662" data-name="Path 5662" d="M435.269,163.049a.717.717,0,0,0,.508-.211l9.524-9.523a.719.719,0,0,0-1.017-1.017l-9.524,9.524a.719.719,0,0,0,.508,1.226Z" transform="translate(-434.551 -152.088)" fill="#86bde6"/>
          </g>
        </g>
        <g id="Group_4734" data-name="Group 4734" transform="translate(7.997 106.883)">
          <path id="Path_5663" data-name="Path 5663" d="M443.438,231.478s1.846-4.59,10.321-6.324c0,0-9.255-.316-14.4,3.968,0,0,3.5-19.52,3.273-25.893l-7.676,24.489s-3.385-12.484-9.381-18.621c0,0,4.891,10.739,2.84,16.957a60.727,60.727,0,0,0,7.172,3.632A76.147,76.147,0,0,0,443.438,231.478Z" transform="translate(-425.571 -203.229)" fill="#a8d3f1"/>
          <g id="Group_4733" data-name="Group 4733" clip-path="url(#clip-path-5)">
            <path id="Path_5664" data-name="Path 5664" d="M434.729,67.62c16.086-21.78,52.126-28.636,80.591-3.219s52.158,8.371,78.3-6.44c37.182-21.061,88.058-8.692,88.582,30.72s-27.788,62.711,0,87.239,17.02,63.915-30.027,70.962-59.453-30.269-122.722-12.922-96.836,26.487-112.03-4.74c-20.973-43.1,31.459-71.283,18.876-105.081S426.34,78.979,434.729,67.62Z" transform="translate(-427.083 -221.092)" fill="#a8d3f1"/>
          </g>
        </g>
      </g>
    </g>
    <path id="Path_5666" data-name="Path 5666" d="M484.632,145.458l-3.324-17.145-1.813.412,2.811,17.117Z" transform="translate(7.709 9.253)" fill="#bc2060"/>
    <g id="Group_4747" data-name="Group 4747" transform="translate(412.702 47.801)">
      <g id="Group_4738" data-name="Group 4738">
        <g id="Group_4737" data-name="Group 4737" clip-path="url(#clip-path-4)">
          <path id="Path_5667" data-name="Path 5667" d="M461.426,166.686c-1.31,6.074,0,9.089,2.36,18.789s4.475,62.393,4.475,62.393H477.1l9.4-81.182Z" transform="translate(-407.129 -34.138)" fill="url(#linear-gradient-2)"/>
        </g>
      </g>
      <g id="Group_4742" data-name="Group 4742" transform="translate(96.505 73.804)">
        <path id="Path_5669" data-name="Path 5669" d="M499.23,140.8s15.074-11.929,15.991-13.436a67.358,67.358,0,0,0,2.884-7.079l9.83-6.292s.918.264-.262,1.41-4.129,3.964-4.129,3.964,2.883,2.753,1.507,4.588c0,0,1.114,2.971-1.311,4.729s-3.867,1.1-5.308,2.611-15.719,16.451-15.719,16.451Z" transform="translate(-499.23 -113.997)" fill="url(#linear-gradient-3)"/>
        <g id="Group_4739" data-name="Group 4739" transform="translate(19.526 7.099)">
          <path id="Path_5670" data-name="Path 5670" d="M521.892,125.857a.332.332,0,0,1-.056,0c-.547-.076-1.445-1.288-2.332-2.584-.117-.172-.213-.311-.263-.377a2.5,2.5,0,0,0-.12.258,4.429,4.429,0,0,1-2.252,2.451.087.087,0,1,1-.075-.156,4.271,4.271,0,0,0,2.167-2.363c.1-.245.158-.368.261-.384a.148.148,0,0,1,.133.058c.048.057.145.2.292.415.5.728,1.667,2.435,2.214,2.511a.143.143,0,0,0,.125-.03c.531-.443-.23-2.858-1.146-4.16-.892-1.267-3.285-.9-3.307-.9a.086.086,0,1,1-.028-.171c.1-.016,2.523-.387,3.476.97.889,1.263,1.778,3.84,1.116,4.393A.316.316,0,0,1,521.892,125.857Z" transform="translate(-516.744 -120.364)" fill="#564134"/>
        </g>
        <g id="Group_4740" data-name="Group 4740" transform="translate(20.451 11.58)">
          <path id="Path_5671" data-name="Path 5671" d="M519.938,126.916a1.552,1.552,0,0,1-.526-.079c-.949-.345-1.8-2.252-1.831-2.332a.087.087,0,0,1,.043-.115.088.088,0,0,1,.114.045c.009.019.854,1.92,1.734,2.24a4.385,4.385,0,0,0,2.326-.387.087.087,0,0,1,.114.045.088.088,0,0,1-.045.115A5.866,5.866,0,0,1,519.938,126.916Z" transform="translate(-517.573 -124.383)" fill="#564134"/>
        </g>
        <g id="Group_4741" data-name="Group 4741" transform="translate(21.941 6.164)">
          <path id="Path_5672" data-name="Path 5672" d="M518.995,120.711a.085.085,0,0,1-.074-.041.087.087,0,0,1,.029-.118l1.667-1.013a.085.085,0,0,1,.118.029.087.087,0,0,1-.029.118l-1.667,1.013A.077.077,0,0,1,518.995,120.711Z" transform="translate(-518.909 -119.525)" fill="#564134"/>
        </g>
      </g>
      <g id="Group_4744" data-name="Group 4744" transform="translate(63.966 48.783)">
        <path id="Path_5673" data-name="Path 5673" d="M474.973,113.238a24.443,24.443,0,0,1-4.611-8.071s8.308-11.675,22.363-5.419Z" transform="translate(-470.009 -90.826)" fill="#442f6e"/>
        <path id="Path_5674" data-name="Path 5674" d="M492.494,99.573s1.012,7.336-1.661,13.05-3.338,5.846-8.191,4.9l-.8,6.276-9.21-3.227s3.483-9.833,2.088-11.59c-1.178-1.483-1.6-4.088.1-5,2.7-1.439,4.68,1.706,4.8,3.019l1.311-4.942S490.431,98.806,492.494,99.573Z" transform="translate(-469.748 -90.647)" fill="url(#linear-gradient-4)"/>
        <g id="Group_4743" data-name="Group 4743" transform="translate(19.45 5.58)">
          <path id="Path_5675" data-name="Path 5675" d="M487.995,100.663a.565.565,0,0,0,.1-.01l15.24-3.087a.508.508,0,1,0-.2-1L487.9,99.658a.507.507,0,0,0,.1,1Z" transform="translate(-487.491 -96.56)" fill="#cc0a31"/>
        </g>
        <path id="Path_5676" data-name="Path 5676" d="M492.737,100.733,470.3,105.859s-2.384-10.781,7.462-13.6S492.454,95.723,492.737,100.733Z" transform="translate(-470.045 -91.555)" fill="url(#linear-gradient-5)"/>
      </g>
      <g id="Group_4745" data-name="Group 4745" transform="translate(54.297 77.999)">
        <path id="Path_5677" data-name="Path 5677" d="M485.749,127.174l11.727,10.175-4.526,8.624-8.114-5.768Z" transform="translate(-458.677 -116.678)" fill="url(#linear-gradient-6)"/>
        <path id="Path_5678" data-name="Path 5678" d="M487.68,171.027s5.251-32.518.766-42.771-13.617-13.776-18.742-7.047-3.1,17.579-3.524,26.43c-.8,16.5-4.646,21.626-4.806,24.67H487.68Z" transform="translate(-461.373 -117.76)" fill="url(#linear-gradient-7)"/>
        <path id="Path_5679" data-name="Path 5679" d="M470.308,129.748l-2.521-.322,2.544,17.652,5.208-.56Z" transform="translate(-460.636 -116.42)" fill="#bc2060"/>
      </g>
      <g id="Group_4746" data-name="Group 4746" transform="translate(81.431 94.944)">
        <rect id="Rectangle_2343" data-name="Rectangle 2343" width="25.298" height="19.531" transform="translate(25.298 26.638) rotate(180)" fill="url(#linear-gradient-8)"/>
        <rect id="Rectangle_2344" data-name="Rectangle 2344" width="13.763" height="7.108" transform="translate(19.531 7.108) rotate(180)" fill="url(#linear-gradient-9)"/>
      </g>
      <path id="Path_5680" data-name="Path 5680" d="M482.87,142.223l1.7,10.8,25.825,4.456s2.1-1.377,2.425-2.949,1.639-.787,1.049,1.048c0,0,1.376-1.376,1.835.656s.394,6.161-4.194,7.143c-3.844.824-26.02-1.611-33.107-2.423a3.021,3.021,0,0,1-2.616-2.4l-3.008-14.708Z" transform="translate(-405.765 -36.949)" fill="url(#linear-gradient-3)"/>
      <path id="Path_5681" data-name="Path 5681" d="M467.787,129.553l3.4,16.587,13.637-1.225-2.171-16.6" transform="translate(-406.339 -38.548)" fill="url(#linear-gradient-11)"/>
    </g>
  </g>
</svg>
