<svg xmlns="http://www.w3.org/2000/svg" xmlns:xlink="http://www.w3.org/1999/xlink" width="310.387" height="304.617" viewBox="0 0 310.387 304.617">
  <defs>
    <clipPath id="clip-path">
      <path id="Path_6089" data-name="Path 6089" d="M184.542,410.778s-8.5,5.785-11.927,5.4a1.573,1.573,0,0,1-1.007-.427,26.215,26.215,0,0,1-4.029-6.351s1.063-1.477,4.346,2.437l2.087-1.915L169.7,405.6s2.424-1.926,6.54.523a21.949,21.949,0,0,1-.791-13.942l-10.035-9.667,8.883-7.739.684-.6s.561.551,1.464,1.406c.875.83,2.08,1.939,3.389,3.087,3.133,2.754,6.922,5.736,8.564,5.708C191.443,384.317,184.542,410.778,184.542,410.778Z" transform="translate(-165.419 -374.175)" fill="#fff" stroke="#263238" stroke-linecap="round" stroke-linejoin="round" stroke-width="1"/>
    </clipPath>
    <clipPath id="clip-path-2">
      <path id="Path_6129" data-name="Path 6129" d="M370.862,288.926s-2.155,15.957-13.078,22.2c-10.816,1.543-22.947-7.42-27.038-18.191-3.233-8.5-.4-18.149,1.136-22.277a.008.008,0,0,1,.008-.007C344.669,263.363,370.862,288.926,370.862,288.926Z" transform="translate(-329.262 -269.347)" fill="#fff" stroke="#263238" stroke-linecap="round" stroke-linejoin="round" stroke-width="1"/>
    </clipPath>
  </defs>
  <g id="Group_4961" data-name="Group 4961" transform="translate(-57.401 -51.101)">
    <g id="Background_Simple" data-name="Background Simple" transform="translate(-328.599 51.101)">
      <g id="Group_4933" data-name="Group 4933">
        <path id="Path_6052" data-name="Path 6052" d="M70.038,156.176c27.053-27.043,49.96-4.355,59.612-40.668,21.8-82.025,112.218-81.226,124.107-22.879C275.182,197.767,368.478,131,367.784,206.3c-.74,80.4-59.863,143.015-165.9,149.273C106.821,361.185,25.215,200.983,70.038,156.176Z" transform="translate(328.599 -51.101)" fill="rgba(255,185,0,0.67)"/>
      </g>
    </g>
    <g id="Gift" transform="translate(81.169 128.176)">
      <g id="Group_4940" data-name="Group 4940" transform="translate(0)">
        <g id="Group_4938" data-name="Group 4938" transform="translate(10.812 10.125)">
          <path id="Rectangle_2421" data-name="Rectangle 2421" d="M0,0H26.869a0,0,0,0,1,0,0V15.671a1.655,1.655,0,0,1-1.655,1.655H1.655A1.655,1.655,0,0,1,0,15.671V0A0,0,0,0,1,0,0Z" transform="translate(3.28 10.957) rotate(10.912)" fill="none" stroke="#263238" stroke-linecap="round" stroke-linejoin="round" stroke-width="1"/>
          <path id="Rectangle_2422" data-name="Rectangle 2422" d="M0,0H28.233a0,0,0,0,1,0,0V3.846A1.655,1.655,0,0,1,26.577,5.5H1.655A1.655,1.655,0,0,1,0,3.846V0A0,0,0,0,1,0,0Z" transform="matrix(-0.982, -0.189, 0.189, -0.982, 30.333, 16.172)" fill="none" stroke="#263238" stroke-linecap="round" stroke-linejoin="round" stroke-width="1"/>
          <rect id="Rectangle_2423" data-name="Rectangle 2423" width="3.842" height="22.827" transform="matrix(0.982, 0.189, -0.189, 0.982, 15.626, 7.735)" fill="none" stroke="#263238" stroke-linecap="round" stroke-linejoin="round" stroke-width="1"/>
          <path id="Path_6064" data-name="Path 6064" d="M119.053,211.406s6.54-4.772,9.566-3.327,1.531,5.467.008,5.173" transform="translate(-101.54 -203.308)" fill="none" stroke="#263238" stroke-linecap="round" stroke-linejoin="round" stroke-width="1"/>
          <path id="Path_6065" data-name="Path 6065" d="M122.439,212.627s5.324-2.649,6.1-1.452-1.528,2.334-3.294,1.993" transform="translate(-102.34 -204.03)" fill="none" stroke="#263238" stroke-linecap="round" stroke-linejoin="round" stroke-width="1"/>
          <path id="Path_6066" data-name="Path 6066" d="M119.283,210.045s2.764-5.022,2.4-6.624l1.845,0s.6,1.9-1.552,5.156" transform="translate(-101.594 -202.271)" fill="none" stroke="#263238" stroke-linecap="round" stroke-linejoin="round" stroke-width="1"/>
          <path id="Path_6067" data-name="Path 6067" d="M115.8,210.463s-4.3-6.862-7.643-6.645-3.455,4.505-1.931,4.8" transform="translate(-98.289 -202.365)" fill="none" stroke="#263238" stroke-linecap="round" stroke-linejoin="round" stroke-width="1"/>
          <path id="Path_6068" data-name="Path 6068" d="M113.966,210.718s-3.957-4.439-5.122-3.616.551,2.735,2.316,3.074" transform="translate(-99.039 -203.117)" fill="none" stroke="#263238" stroke-linecap="round" stroke-linejoin="round" stroke-width="1"/>
          <path id="Path_6069" data-name="Path 6069" d="M118.313,209.648s-.7-5.689.232-7.042l-1.71-.689s-1.266,1.544-.477,5.364" transform="translate(-100.842 -201.917)" fill="none" stroke="#263238" stroke-linecap="round" stroke-linejoin="round" stroke-width="1"/>
        </g>
        <g id="Group_4939" data-name="Group 4939">
          <path id="Path_6070" data-name="Path 6070" d="M144.548,201.995a26.713,26.713,0,0,1,5.513,12.907" transform="translate(-96.749 -191.811)" fill="none" stroke="#263238" stroke-linecap="round" stroke-linejoin="round" stroke-width="1"/>
          <path id="Path_6071" data-name="Path 6071" d="M85.88,203.141a26.789,26.789,0,0,1,42.777-6.59" transform="translate(-82.894 -188.662)" fill="none" stroke="#263238" stroke-linecap="round" stroke-linejoin="round" stroke-width="1"/>
          <path id="Path_6072" data-name="Path 6072" d="M87.131,238.886a26.671,26.671,0,0,1-5.079-17.875" transform="translate(-81.971 -196.302)" fill="none" stroke="#263238" stroke-linecap="round" stroke-linejoin="round" stroke-width="1"/>
          <path id="Path_6073" data-name="Path 6073" d="M104.108,255.318A26.7,26.7,0,0,1,91.7,247.961" transform="translate(-84.268 -202.666)" fill="none" stroke="#263238" stroke-linecap="round" stroke-linejoin="round" stroke-width="1"/>
          <path id="Path_6074" data-name="Path 6074" d="M143.092,226.437a26.78,26.78,0,0,1-28.772,24.628" transform="translate(-89.611 -197.583)" fill="none" stroke="#263238" stroke-linecap="round" stroke-linejoin="round" stroke-width="1"/>
        </g>
      </g>
    </g>
    <g id="Update" transform="translate(195.127 65.791)">
      <g id="Group_4944" data-name="Group 4944" transform="translate(0 0)">
        <g id="Group_4943" data-name="Group 4943">
          <path id="Path_6080" data-name="Path 6080" d="M308.772,79.765A34.513,34.513,0,0,0,292.7,71.373" transform="translate(-250.695 -70.579)" fill="none" stroke="#263238" stroke-linecap="round" stroke-linejoin="round" stroke-width="1"/>
          <path id="Path_6081" data-name="Path 6081" d="M300.634,140.533A34.609,34.609,0,0,0,313.4,86.093" transform="translate(-252.569 -74.055)" fill="none" stroke="#263238" stroke-linecap="round" stroke-linejoin="round" stroke-width="1"/>
          <path id="Path_6082" data-name="Path 6082" d="M253.525,150.02a34.463,34.463,0,0,0,22.516,8.328" transform="translate(-241.443 -89.152)" fill="none" stroke="#263238" stroke-linecap="round" stroke-linejoin="round" stroke-width="1"/>
          <path id="Path_6083" data-name="Path 6083" d="M238.47,123.948a34.488,34.488,0,0,0,8.236,16.72" transform="translate(-237.888 -82.995)" fill="none" stroke="#263238" stroke-linecap="round" stroke-linejoin="round" stroke-width="1"/>
          <path id="Path_6084" data-name="Path 6084" d="M272.306,70.333a34.6,34.6,0,0,0-34.6,34.6" transform="translate(-237.708 -70.333)" fill="none" stroke="#263238" stroke-linecap="round" stroke-linejoin="round" stroke-width="1"/>
        </g>
      </g>
    </g>
    <g id="Heart" transform="translate(149.016 150.188)">
      <g id="Group_4945" data-name="Group 4945">
        <path id="Path_6085" data-name="Path 6085" d="M196.773,186.731a6,6,0,0,0-7.454-.545,6.014,6.014,0,0,0-5.267-5.311c-4.19-.558-7.618,3.531-6.5,9.222a24.528,24.528,0,0,0,4.831,9.618c.167.213.324.4.451.548.2,0,.441,0,.711-.013a24.457,24.457,0,0,0,10.441-2.588C199.051,194.817,199.922,189.551,196.773,186.731Z" transform="translate(-177.341 -180.823)" fill="none" stroke="#263238" stroke-linecap="round" stroke-linejoin="round" stroke-width="1"/>
        <path id="Path_6086" data-name="Path 6086" d="M180.816,209.755s-6.035,11.258,2.977,17c15.063,9.6,20.132-13.05,8.6-11.014-8.343,1.473,1.373,24.62,14.858,17.3" transform="translate(-177.695 -187.656)" fill="none" stroke="#263238" stroke-linecap="round" stroke-linejoin="round" stroke-width="1" stroke-dasharray="3 3"/>
      </g>
    </g>
    <g id="Character" transform="translate(103.794 130.275)">
      <g id="Group_4960" data-name="Group 4960">
        <g id="Group_4948" data-name="Group 4948" transform="translate(36.116 167.603)">
          <g id="Group_4947" data-name="Group 4947">
            <path id="Path_6087" data-name="Path 6087" d="M184.542,410.778s-8.5,5.785-11.927,5.4a1.573,1.573,0,0,1-1.007-.427,26.215,26.215,0,0,1-4.029-6.351s1.063-1.477,4.346,2.437l2.087-1.915L169.7,405.6s2.424-1.926,6.54.523a21.949,21.949,0,0,1-.791-13.942l-10.035-9.667,8.883-7.739.684-.6s.561.551,1.464,1.406c.875.83,2.08,1.939,3.389,3.087,3.133,2.754,6.922,5.736,8.564,5.708C191.443,384.317,184.542,410.778,184.542,410.778Z" transform="translate(-165.419 -374.175)" fill="#fff"/>
            <g id="Group_4946" data-name="Group 4946" clip-path="url(#clip-path)">
              <path id="Path_6088" data-name="Path 6088" d="M177.968,407.171s-4.844,4.994-5.353,9.19a1.573,1.573,0,0,1-1.007-.427,26.215,26.215,0,0,1-4.029-6.351s1.063-1.477,4.346,2.437l2.087-1.915L169.7,405.78s2.424-1.926,6.54.523a21.949,21.949,0,0,1-.791-13.942l-10.035-9.667,8.883-7.739,2.149.811c.875.83,2.08,1.939,3.389,3.087-1.879,2.76-5.906,8.456-5.906,8.456l3.479,4.72S175.3,403.927,177.968,407.171Z" transform="translate(-165.419 -374.359)" fill="#92e3a9" opacity="0.4"/>
            </g>
            <path id="Path_6090" data-name="Path 6090" d="M184.542,410.778s-8.5,5.785-11.927,5.4a1.573,1.573,0,0,1-1.007-.427,26.215,26.215,0,0,1-4.029-6.351s1.063-1.477,4.346,2.437l2.087-1.915L169.7,405.6s2.424-1.926,6.54.523a21.949,21.949,0,0,1-.791-13.942l-10.035-9.667,8.883-7.739.684-.6s.561.551,1.464,1.406c.875.83,2.08,1.939,3.389,3.087,3.133,2.754,6.922,5.736,8.564,5.708C191.443,384.317,184.542,410.778,184.542,410.778Z" transform="translate(-165.419 -374.175)" fill="none" stroke="#263238" stroke-linecap="round" stroke-linejoin="round" stroke-width="1"/>
          </g>
          <path id="Path_6091" data-name="Path 6091" d="M176.67,419.8a10.646,10.646,0,0,1,2.242-3.8" transform="translate(-168.076 -384.053)" fill="none" stroke="#263238" stroke-linecap="round" stroke-linejoin="round" stroke-width="1"/>
        </g>
        <path id="Path_6092" data-name="Path 6092" d="M321.5,318.9a24.089,24.089,0,0,1-4.813,5.188.008.008,0,0,0-.008.007c-15.635,12.946-51.684,19.343-51.684,19.343s-1.2,1.81-3.061,4.388c-3.334,4.626-8.793,11.731-13.244,15.293h-.008c-1.878,1.511-3.581,2.384-4.864,2.149l6.76,24.981,3.027,10.844s-31.081,13.56-84.248-1.949c0,0-.6-6.938-.151-8.419.021-.067.043-.142.072-.216a9.779,9.779,0,0,1,2.082-2.621s-.3-4.461-.448-9a60.792,60.792,0,0,1,.108-8.689c.377-2.292,2.054-7.826,2.9-10.547.3-.965.5-1.577.5-1.577l-2.646-24.777L171,326.159s-.012-.131-.039-.371c0-.053-.006-.108-.016-.177l-.417-3.828-13.674,4.177s.729,1.6,1.7,3.847c1.8,4.108,4.437,10.369,5.025,12.847a5.3,5.3,0,0,0,.174.6c1.27,3.614,6.084,6.894,6.084,6.894L156.9,365.277l-3.83-2.672a11.741,11.741,0,0,1-1.542.97,14.1,14.1,0,0,1-13.567.308,20.186,20.186,0,0,1-6.4-5.662c-10.207-13.214-14.59-23.977-13.155-36.644s58.316-51.635,69.6-51.231l16.788,3.709a3.9,3.9,0,0,1,2.1-1.04c3.053.156,3.133,3.7,3.133,3.7l37.622,6.107s3.9-1.952,4.578-1.919a2.932,2.932,0,0,1,2.376,1.511s9.747-5.837,12.887-4.478C277.794,282.387,329.114,307.325,321.5,318.9Z" transform="translate(-118.137 -182.051)" fill="#92e3a9"/>
        <g id="Group_4949" data-name="Group 4949" transform="translate(19.819 101.438)">
          <path id="Path_6093" data-name="Path 6093" d="M206.61,414.288a28.093,28.093,0,0,1-16.283,8.831c-1.979.315-3.722.632-5.241.946a9.779,9.779,0,0,1,2.082-2.621s-.3-4.461-.448-9C191.137,415.33,198.827,418.69,206.61,414.288Z" transform="translate(-153.767 -317.048)" opacity="0.2"/>
          <path id="Path_6094" data-name="Path 6094" d="M190.493,379.11c.3-.965.5-1.577.5-1.577l-2.646-24.777c3.953,5.671,18.055,24.994,27.779,27.08C226.284,382.01,199.11,385.856,190.493,379.11Z" transform="translate(-154.536 -302.952)" opacity="0.2"/>
          <path id="Path_6095" data-name="Path 6095" d="M283.039,418.93c-10.616-1.208-25.634-3.884-27.136-9.44-2.337-8.681,9.045-13.887,25.24-17.691-1.878,1.511-3.581,2.384-4.864,2.149Z" transform="translate(-170.419 -312.173)" opacity="0.2"/>
          <path id="Path_6096" data-name="Path 6096" d="M359.693,334.53c-15.635,12.946-51.684,19.343-51.684,19.343s-1.2,1.81-3.061,4.388a60.091,60.091,0,0,1-2.3-39.946s2.779,15.039,14.305,18.612c0,0-8.823-6.571-5.744-22.392,0,0,3.008,18.622,22.6,23.762C343.336,340.8,352.642,338.027,359.693,334.53Z" transform="translate(-180.972 -293.926)" opacity="0.2"/>
          <path id="Path_6097" data-name="Path 6097" d="M178.17,330.991l-.433-4-13.674,4.177s.729,1.6,1.7,3.847c-5.229-.539-15.149,4.318-16.881-.973-2.087-6.384,10.755-4.184,10.755-4.184l12.114-7.047a21.6,21.6,0,0,1,3.54-17.163l1.108,6.834c.531-12.994,5.613-20.1,5.613-20.1C177.787,302.652,177.9,327.942,178.17,330.991Z" transform="translate(-145.164 -288.693)" opacity="0.2"/>
          <path id="Path_6098" data-name="Path 6098" d="M175.97,373.606,163.023,388.74l-3.83-2.672a11.74,11.74,0,0,1-1.542.97,14.1,14.1,0,0,1-13.567.308c4.2-5.805,12.861-14.351,23.176-17.651a104,104,0,0,0-6.879,11.756l2.66,2.622S169.68,376.505,175.97,373.606Z" transform="translate(-144.084 -306.952)" opacity="0.2"/>
          <path id="Path_6099" data-name="Path 6099" d="M226.382,287.554c0,1.332-.843,16.475,10.171,20.475s20.808-2.784,20.808-2.784-16.893,16.29-27.171,7.585S226.382,287.554,226.382,287.554Z" transform="translate(-163.045 -287.554)" opacity="0.2"/>
        </g>
        <path id="Path_6100" data-name="Path 6100" d="M169.355,399.139s-.6-6.938-.154-8.416a8.8,8.8,0,0,1,2.155-2.835s-.936-14.065-.337-17.691c.513-3.107,3.393-12.13,3.393-12.13l-3.88-36.286-13.675,4.18s5.822,12.862,6.723,16.694,6.263,7.489,6.263,7.489l-12.952,15.129-3.825-2.667s-11.3,8.835-21.508-4.384-14.589-23.978-13.156-36.648,58.321-51.633,69.606-51.232l16.786,3.711a3.914,3.914,0,0,1,2.1-1.038c3.052.156,3.133,3.7,3.133,3.7l37.618,6.106s3.9-1.952,4.583-1.918a2.939,2.939,0,0,1,2.376,1.506s9.743-5.833,12.887-4.476c10.3,4.445,61.62,29.386,54.007,40.959C310.69,335.327,265,343.433,265,343.433s-15.2,22.919-21.183,21.828l9.789,35.83" transform="translate(-118.137 -182.05)" fill="none" stroke="#263238" stroke-linecap="round" stroke-linejoin="round" stroke-width="1"/>
        <path id="Path_6101" data-name="Path 6101" d="M323.724,314.125c17.264,11.4,31.179,9.293,42.073-5.38,0,0,9.068-11.69,8.425-24.3s-3.654-53.748-42.957-43.23c-6.468,1.731-21.566,21.95-22.839,27.506-.581,2.54-6.642,15.466-12.525,28.846" transform="translate(-160.118 -174.769)" fill="#92e3a9" stroke="#263238" stroke-linecap="round" stroke-linejoin="round" stroke-width="1"/>
        <path id="Path_6102" data-name="Path 6102" d="M258.459,178.454s10.995-1.669,18.638,5.173c9.662,8.647,20.507,31.959,5.057,70.6,0,0-22.819-15.152-61.767-5.019,0,0,3.353-9.064-2.534-37.592C215.192,198.714,221.884,168.975,258.459,178.454Z" transform="translate(-141.563 -159.918)" fill="#263238"/>
        <g id="Group_4950" data-name="Group 4950" transform="translate(88.826 65.563)">
          <path id="Path_6103" data-name="Path 6103" d="M245.82,290.513c16.277,2.638,33.575-15.381,33.575-15.381s-8.851-1.091-9.643-5.246c-2.539-13.108,7.674-29.3,7.674-29.3s-39.524,1.094-32.613,10.037a22.534,22.534,0,0,1,3.126,5.361c2.4,5.888.734,10.329-.542,11.413a1.75,1.75,0,0,1-.287.191c-2.392,1.093-12.215-.535-12.215-.535S230.968,288.1,245.82,290.513Z" transform="translate(-234.426 -240.587)" fill="#fff" stroke="#263238" stroke-linecap="round" stroke-linejoin="round" stroke-width="1"/>
          <path id="Path_6104" data-name="Path 6104" d="M278.711,292.344a44.456,44.456,0,0,1-18.5,2.11l-4.953,2.427" transform="translate(-239.345 -252.81)" fill="none" stroke="#263238" stroke-linecap="round" stroke-linejoin="round" stroke-width="1"/>
          <path id="Path_6105" data-name="Path 6105" d="M245.409,294.479l-.364-3.251s-8.106-2.539-10.616-7.36" transform="translate(-234.427 -250.808)" fill="none" stroke="#263238" stroke-linecap="round" stroke-linejoin="round" stroke-width="1"/>
          <path id="Path_6106" data-name="Path 6106" d="M251.408,271.543c12.1,3.164,17.788-12.36,17.788-12.36s-9.683-2.887-17.247.946C254.346,266.018,252.684,270.459,251.408,271.543Z" transform="translate(-238.436 -244.732)" fill="#263238"/>
        </g>
        <g id="Group_4952" data-name="Group 4952" transform="translate(78.693 17.942)">
          <path id="Path_6107" data-name="Path 6107" d="M278.471,219.131c2.945-16.529-.328-36.365-25.485-34.722-17.973,1.174-17.826,20.88-16.636,26.762,2,9.892-.867,13.789,2.215,22.1,2.214,5.972,7.362,12.65,13.418,15.152,3.726,1.539,18.811-9.046,19.926-13.886" transform="translate(-224.64 -179.677)" fill="#fff" stroke="#263238" stroke-linecap="round" stroke-linejoin="round" stroke-width="1"/>
          <path id="Path_6108" data-name="Path 6108" d="M248.722,223.516c-.15,1.855-.369,6.452-4.3,9.843-2.541,2.194,3.294,4.438,3.294,4.438" transform="translate(-226.502 -188.935)" fill="none" stroke="#263238" stroke-linecap="round" stroke-linejoin="round" stroke-width="1"/>
          <path id="Path_6109" data-name="Path 6109" d="M241.906,214.68s-5.552-2.7-9.3,1.758" transform="translate(-223.862 -186.656)" fill="none" stroke="#263238" stroke-linecap="round" stroke-linejoin="round" stroke-width="1"/>
          <path id="Path_6110" data-name="Path 6110" d="M256.973,214.246a18.787,18.787,0,0,1,11.869.467" transform="translate(-229.617 -186.573)" fill="none" stroke="#263238" stroke-linecap="round" stroke-linejoin="round" stroke-width="1"/>
          <path id="Path_6111" data-name="Path 6111" d="M264.515,223.722c.173,1.595,1.246,2.786,2.4,2.662s1.945-1.519,1.773-3.113-1.246-2.786-2.4-2.662S264.342,222.127,264.515,223.722Z" transform="translate(-231.393 -188.246)" fill="#263238"/>
          <path id="Path_6112" data-name="Path 6112" d="M249.293,247.648a31.328,31.328,0,0,0,12.415-4.535s.518,6.934-5.29,8.376c-4.454,1.107-6.179-3.977-6.179-3.977" transform="translate(-227.804 -193.563)" fill="none" stroke="#263238" stroke-linecap="round" stroke-linejoin="round" stroke-width="1"/>
          <path id="Path_6113" data-name="Path 6113" d="M258.975,189.274s-1.592,19.586,15.7,26.7l8.1-18.827L270.52,183.577l-18.464-5.334c-27.584,1.72-39.46,18.862-24.144,64.526C227.912,242.769,223.629,188.382,258.975,189.274Z" transform="translate(-221.16 -178.243)" fill="#263238"/>
          <path id="Path_6114" data-name="Path 6114" d="M286.268,227.065c-.238-2.2,5.329-7.809,7.214-4.21,3.211,6.133.872,11.479-2.45,13.573-1.488.939-3.373,2.695-4.7,1.037" transform="translate(-236.534 -188.501)" fill="#fff" stroke="#263238" stroke-linecap="round" stroke-linejoin="round" stroke-width="1"/>
          <path id="Path_6115" data-name="Path 6115" d="M242.477,224.676c.173,1.595,1.246,2.786,2.4,2.662s1.945-1.518,1.773-3.113-1.246-2.786-2.4-2.662S242.3,223.082,242.477,224.676Z" transform="translate(-226.188 -188.471)" fill="#263238"/>
          <g id="Group_4951" data-name="Group 4951" transform="translate(3.877 2.659)" opacity="0.2">
            <path id="Path_6116" data-name="Path 6116" d="M226.665,221.432c-.207,1.329-.348,2.669-.43,4.012" transform="translate(-226.235 -191.101)" fill="none" stroke="#fff" stroke-linecap="round" stroke-linejoin="round" stroke-width="1"/>
            <path id="Path_6117" data-name="Path 6117" d="M257.625,188.016c-13.974-.369-26.959,8.538-30.05,22.524" transform="translate(-226.551 -183.207)" fill="none" stroke="#fff" stroke-linecap="round" stroke-linejoin="round" stroke-width="1"/>
            <path id="Path_6118" data-name="Path 6118" d="M255.083,182.54s-20.15-4.74-27.706,8.627" transform="translate(-226.505 -181.724)" fill="none" stroke="#fff" stroke-linecap="round" stroke-linejoin="round" stroke-width="1"/>
            <path id="Path_6119" data-name="Path 6119" d="M285.052,213.277a21.586,21.586,0,0,0,4.344,4.58" transform="translate(-240.125 -189.175)" fill="none" stroke="#fff" stroke-linecap="round" stroke-linejoin="round" stroke-width="1"/>
            <path id="Path_6120" data-name="Path 6120" d="M274.589,186.21a54.516,54.516,0,0,0,6.393,18.212" transform="translate(-237.654 -182.783)" fill="none" stroke="#fff" stroke-linecap="round" stroke-linejoin="round" stroke-width="1"/>
            <path id="Path_6121" data-name="Path 6121" d="M300.708,265.57q-.536,2.407-1.255,4.769" transform="translate(-243.526 -201.525)" fill="none" stroke="#fff" stroke-linecap="round" stroke-linejoin="round" stroke-width="1"/>
            <path id="Path_6122" data-name="Path 6122" d="M299.571,230.709c3.27,7.258,3.045,16.288,1.7,23.927" transform="translate(-243.554 -193.292)" fill="none" stroke="#fff" stroke-linecap="round" stroke-linejoin="round" stroke-width="1"/>
            <path id="Path_6123" data-name="Path 6123" d="M294.673,247.257a19.525,19.525,0,0,1-5.681,14.934" transform="translate(-241.056 -197.2)" fill="none" stroke="#fff" stroke-linecap="round" stroke-linejoin="round" stroke-width="1"/>
            <path id="Path_6124" data-name="Path 6124" d="M284.265,189.27c3.429,4.637,5.973,9.607,9.947,13.841,4.184,4.457,8.367,9.565,9.152,15.844" transform="translate(-239.939 -183.506)" fill="none" stroke="#fff" stroke-linecap="round" stroke-linejoin="round" stroke-width="1"/>
            <path id="Path_6125" data-name="Path 6125" d="M277.941,182.961a15.217,15.217,0,0,1,2.689,2.255" transform="translate(-238.446 -182.016)" fill="none" stroke="#fff" stroke-linecap="round" stroke-linejoin="round" stroke-width="1"/>
          </g>
        </g>
        <path id="Path_6126" data-name="Path 6126" d="M359,309.893c-.4.09-.8.157-1.213.215-10.816,1.543-22.947-7.42-27.038-18.191-3.233-8.5-.4-18.149,1.136-22.277.488-1.294.84-2.047.84-2.047,6.52-9.317,44.446,8.907,44.886,18.952S370.108,307.463,359,309.893Z" transform="translate(-167.996 -180.794)" fill="#263238" stroke="#263238" stroke-linecap="round" stroke-linejoin="round" stroke-width="1"/>
        <g id="Group_4954" data-name="Group 4954" transform="translate(161.266 87.531)">
          <path id="Path_6127" data-name="Path 6127" d="M370.862,288.926s-2.155,15.957-13.078,22.2c-10.816,1.543-22.947-7.42-27.038-18.191-3.233-8.5-.4-18.149,1.136-22.277a.008.008,0,0,1,.008-.007C344.669,263.363,370.862,288.926,370.862,288.926Z" transform="translate(-329.262 -269.347)" fill="#fff"/>
          <g id="Group_4953" data-name="Group 4953" clip-path="url(#clip-path-2)">
            <path id="Path_6128" data-name="Path 6128" d="M370.862,288.926s-2.155,15.957-13.078,22.2c-10.816,1.543-22.947-7.42-27.038-18.191-3.233-8.5-.4-18.149,1.136-22.277a.008.008,0,0,1,.008-.007C344.669,263.363,370.862,288.926,370.862,288.926Z" transform="translate(-329.262 -269.347)" fill="#92e3a9" opacity="0.4"/>
          </g>
          <path id="Path_6130" data-name="Path 6130" d="M370.862,288.926s-2.155,15.957-13.078,22.2c-10.816,1.543-22.947-7.42-27.038-18.191-3.233-8.5-.4-18.149,1.136-22.277a.008.008,0,0,1,.008-.007C344.669,263.363,370.862,288.926,370.862,288.926Z" transform="translate(-329.262 -269.347)" fill="none" stroke="#263238" stroke-linecap="round" stroke-linejoin="round" stroke-width="1"/>
        </g>
        <path id="Path_6131" data-name="Path 6131" d="M325.182,305.788s12.313,17.674,26.692,19.146,23.576-10.64,24.173-19.776" transform="translate(-167.033 -190.273)" fill="none" stroke="#263238" stroke-linecap="round" stroke-linejoin="round" stroke-width="1"/>
        <path id="Path_6132" data-name="Path 6132" d="M316.112,195.513c1.084-3.03,8.852-2.013,11.314,7.432s12.18,32.391,12.18,32.391,38.6-56.8,45.52-58.986,4.181,7.653-5.064,21.309c0,0,8.659-1.525,10.931.007s1.167,10.7,2.378,13.915c2.029,5.389-2.481,6.526-2.481,6.526a9.624,9.624,0,0,1,6.028,2.292c2.479,2.324,1.236,11.93,1.944,14.647s-4.025,5.013-4.025,5.013,11.38,6.207,8.811,7.761c-4.333,2.618-6.805-.064-6.805-.064s-17.483,21.962-30.669,26.849-38.862-14.546-41.621-25.132.534-9.934-1.559-27.549S316.112,195.513,316.112,195.513Z" transform="translate(-164.891 -159.781)" fill="#fff" stroke="#263238" stroke-linecap="round" stroke-linejoin="round" stroke-width="1"/>
        <g id="Group_4959" data-name="Group 4959" transform="translate(153.41)">
          <rect id="Rectangle_2424" data-name="Rectangle 2424" width="59.305" height="102.056" rx="4.424" transform="matrix(0.968, -0.252, 0.252, 0.968, 0, 14.957)" fill="#fff" stroke="#263238" stroke-linecap="round" stroke-linejoin="round" stroke-width="1"/>
          <g id="Group_4955" data-name="Group 4955" transform="translate(23.358 8.312)">
            <path id="Path_6133" data-name="Path 6133" d="M351.186,169.526a.828.828,0,1,1-1.01-.592A.827.827,0,0,1,351.186,169.526Z" transform="translate(-349.558 -166.408)" fill="#92e3a9" stroke="#263238" stroke-linecap="round" stroke-linejoin="round" stroke-width="1"/>
            <path id="Path_6134" data-name="Path 6134" d="M365.085,166.024a.519.519,0,1,1-.632-.371A.518.518,0,0,1,365.085,166.024Z" transform="translate(-352.984 -165.636)" fill="#92e3a9" stroke="#263238" stroke-linecap="round" stroke-linejoin="round" stroke-width="1"/>
            <rect id="Rectangle_2425" data-name="Rectangle 2425" width="6.789" height="0.585" rx="0.293" transform="translate(2.891 2.486) rotate(-14.607)" fill="#92e3a9" stroke="#263238" stroke-linecap="round" stroke-linejoin="round" stroke-width="1"/>
          </g>
          <path id="Path_6135" data-name="Path 6135" d="M376.484,159.788l23.838,91.464a2,2,0,0,1-1.431,2.44l-50.2,13.082a2,2,0,0,1-2.44-1.431L322.417,173.88a2,2,0,0,1,1.431-2.44l10.3-2.686a1.68,1.68,0,0,1,1.8.661l.744,1.063a1.68,1.68,0,0,0,1.8.661l22.622-5.9a1.679,1.679,0,0,0,1.247-1.454l.131-1.29a1.678,1.678,0,0,1,1.247-1.454l10.3-2.686A2,2,0,0,1,376.484,159.788Z" transform="translate(-319.774 -155.589)" fill="#2a2e43" stroke="#263238" stroke-linecap="round" stroke-linejoin="round" stroke-width="1"/>
          <g id="Group_4957" data-name="Group 4957" transform="translate(11.123 19.204)">
            <circle id="Ellipse_466" data-name="Ellipse 466" cx="21.206" cy="21.206" r="21.206" transform="translate(0 38.901) rotate(-66.526)" fill="#fff" stroke="#263238" stroke-linecap="round" stroke-linejoin="round" stroke-width="1"/>
          </g>
          <path id="Path_6137" data-name="Path 6137" d="M390.1,256.1l-28.617,7.458a6.418,6.418,0,0,1-7.83-4.592h0a6.419,6.419,0,0,1,4.592-7.831l28.617-7.458a6.419,6.419,0,0,1,7.83,4.593h0A6.418,6.418,0,0,1,390.1,256.1Z" transform="translate(-327.116 -175.705)" fill="#263238"/>
        </g>
        <path id="Path_6148" data-name="Path 6148" d="M308.7,352.21a85.613,85.613,0,0,1-4.253-44.706" transform="translate(-161.838 -190.827)" fill="none" stroke="#263238" stroke-linecap="round" stroke-linejoin="round" stroke-width="1"/>
        <path id="Path_6149" data-name="Path 6149" d="M276.624,394.609s-17.552,5.366-19.332,9.405,7.872.64,7.872.64" transform="translate(-150.948 -211.398)" fill="none" stroke="#263238" stroke-linecap="round" stroke-linejoin="round" stroke-width="1"/>
        <path id="Path_6150" data-name="Path 6150" d="M288.456,286.147s-16.164,16.017-26.977,20.292" transform="translate(-151.989 -185.783)" fill="none" stroke="#263238" stroke-linecap="round" stroke-linejoin="round" stroke-width="1"/>
        <path id="Path_6151" data-name="Path 6151" d="M227.35,280.514s-2.943,21.625,8.047,25.709" transform="translate(-143.844 -184.453)" fill="none" stroke="#263238" stroke-linecap="round" stroke-linejoin="round" stroke-width="1"/>
        <path id="Path_6152" data-name="Path 6152" d="M186.731,326.208s-.089-28.355,5.542-37.12" transform="translate(-134.336 -186.478)" fill="none" stroke="#263238" stroke-linecap="round" stroke-linejoin="round" stroke-width="1"/>
        <path id="Path_6153" data-name="Path 6153" d="M183.873,299.867s-1.584,17.607,1.967,23.353" transform="translate(-133.578 -189.023)" fill="none" stroke="#263238" stroke-linecap="round" stroke-linejoin="round" stroke-width="1"/>
        <path id="Path_6154" data-name="Path 6154" d="M164.109,342.659s-12.292-4.235-14.841,1.016,7.331.6,7.331.6" transform="translate(-125.39 -198.748)" fill="none" stroke="#263238" stroke-linecap="round" stroke-linejoin="round" stroke-width="1"/>
        <path id="Path_6155" data-name="Path 6155" d="M174.584,367.228s-12.072,6.8-12.692,10.691" transform="translate(-128.47 -204.931)" fill="none" stroke="#263238" stroke-linecap="round" stroke-linejoin="round" stroke-width="1"/>
        <path id="Path_6156" data-name="Path 6156" d="M204.324,342.6s23.106,34.924,35.862,31.715" transform="translate(-138.491 -199.115)" fill="none" stroke="#263238" stroke-linecap="round" stroke-linejoin="round" stroke-width="1"/>
        <path id="Path_6157" data-name="Path 6157" d="M218.577,406.727s-18.119,13.282-20.757,12.158" transform="translate(-136.955 -214.259)" fill="none" stroke="#263238" stroke-linecap="round" stroke-linejoin="round" stroke-width="1"/>
        <path id="Path_6158" data-name="Path 6158" d="M391.137,331.954c1.223-1,2.028-1.667,2.29-1.875C393.155,330.317,392.364,331,391.137,331.954Z" transform="translate(-182.609 -196.158)" opacity="0.2"/>
      </g>
    </g>
  </g>
</svg>
